<svg width="366" height="493" viewBox="0 0 366 493" fill="none" xmlns="http://www.w3.org/2000/svg">

<style>

	.pupil-closed {
		opacity: 1;
		visibility: hidden;
		animation: 5s step-end infinite blink-inverse both;
	}

	.pupil-open {
		animation: 17s step-end infinite glance forwards, 5s step-end infinite blink;
	}

	@keyframes glance {

		0%, 100% {
			transform: translate(0,0);
		}

		12.5% {
			transform: translate(-3px, 2px);
		}

		25% {
			transform: translate(0, 0);		
		}

		37.5% {
			transform: translate(-3px, 1px);
		}

		50% {
			transform: translate(-3px, -2px);
		}

		62.5% {
			transform: translate(0, 0);
		}

		75% {
			transform: translate(4px, -2px);
		}

		87.5% {
			transform: translate(4px, 0px);
		}

	}


	@keyframes blink-inverse {
		0.01% {
			opacity: 1;
		}
		0.02% {
			opacity: 0;
		}

		15% {
			visibility: visible;
			opacity: 1;
		}

		17% {
			opacity: 0;
		}

		19% {
			opacity: 1;
		}

		21% {
			opacity: 0;
		}

		70% {
			opacity: 1;
		}

		72% {
			visibility: visible;
			opacity: 0;
		}

	}

	@keyframes blink {

		0% {
			opacity: 1;
		}

		15% {
			opacity: 0;
		}

		17% {
			opacity: 1;
		}

		19% {
			opacity: 0;
		}

		21% {
			opacity: 1;
		}


		70% {
			opacity: 0;
		}

		72% {
			opacity: 1;
		}

	}

</style>

<path id="white-outline" d="M309.276 396.434C318.814 386.273 336.293 377.162 344.691 372.787C345.938 372.137 347.029 371.567 347.927 371.087C355.624 366.964 360.703 360.837 362.62 353.37C363.977 348.082 364.242 339.71 357.823 329.847C355.147 325.733 352.83 322.863 350.965 320.553C347.889 316.743 347.16 315.838 346.456 311.711C345.019 303.301 342.692 296.618 339.339 291.286C337.709 288.692 335.841 286.427 333.752 284.499C337.077 266.875 335.247 248.954 327.892 224.743C321.151 202.564 299.231 174.191 284.721 155.417C279.956 149.252 275.843 143.927 273.872 140.873C267.007 130.243 266.109 119.101 266.852 102.257C267.138 95.7334 267.359 82.6715 265.598 68.494C263.837 54.32 260.588 43.1541 255.936 35.3038C246.433 19.2648 231.872 2.83896 195.911 2.5972C195.718 2.5972 195.521 2.5972 195.328 2.5972C152.603 2.5972 131.608 34.4611 126.615 61.7454C124.816 71.5747 125.603 81.7355 126.435 92.4938C127.43 105.331 128.459 118.604 125.548 133.704C122.682 148.582 115.758 157.113 106.172 168.921C99.0037 177.752 90.8786 187.761 82.7776 202.436C65.7193 233.343 61.1716 254.269 60.2807 276.666C57.2282 279.806 55.1045 283.166 53.4229 285.826C52.3144 287.58 51.2682 289.238 50.3703 290.208C48.0499 292.723 46.2681 293.586 45.7225 293.807C45.4117 293.862 45.1044 293.931 44.8005 294.014L44.5657 294.08C25.37 299.316 15.4561 313.901 18.6986 332.143C20.6979 343.392 20.6807 347.153 18.5916 354.503C16.8754 360.54 15.4044 367.012 16.2573 373.457C17.4555 382.519 23.0115 389.416 31.8998 392.873C37.8529 395.191 45.3254 400.472 41.3681 400.472C35.5773 400.472 31.4785 403 28.6573 405.69C26.2367 405.808 23.8817 406.775 22.0481 408.508C18.1012 412.238 15.4492 415.63 13.4464 419.505C12.7524 420.845 12.1619 422.192 11.6336 423.594C10.8739 423.995 10.1557 424.492 9.49957 425.086C7.41735 426.972 6.302 429.193 5.65282 431.137C3.72254 433.054 2.59338 435.689 2.59338 438.49V439.343C2.59338 443.256 3.31508 447.052 3.94354 449.922C3.95045 449.953 3.95735 449.984 3.96426 450.015C4.25087 451.269 4.6756 452.491 5.16594 453.69C4.20943 455.665 3.88139 457.941 4.32684 460.207C5.97051 468.548 12.521 477.541 20.2594 482.079C20.2801 482.093 20.3043 482.107 20.3285 482.117C25.0385 484.832 29.4584 485.295 32.6836 485.633C33.83 485.754 35.2562 485.903 35.7327 486.113C37.0794 486.711 38.5055 486.997 39.9213 486.997C42.594 486.997 45.2252 485.961 47.2073 484.003C47.6597 483.554 48.0602 483.067 48.4159 482.559C50.3738 484.925 53.2951 486.314 56.3925 486.314C56.5272 486.314 56.6653 486.314 56.8035 486.307C58.2365 486.251 59.6177 485.899 60.8677 485.298C61.3132 485.347 61.7863 485.378 62.2801 485.378C63.392 485.378 64.4037 485.226 65.3188 484.977C66.0405 485.132 66.7691 485.208 67.4873 485.208C70.5537 485.208 73.4888 483.841 75.464 481.458C75.8058 481.299 76.2582 481.109 76.5966 480.967C76.9557 480.815 77.3114 480.667 77.6567 480.515C80.8059 479.164 83.0193 477.04 84.6285 474.719C85.6126 476.256 86.9593 477.472 88.5097 478.291C88.8999 479.385 89.411 480.501 90.1016 481.572C92.0146 484.535 95.2951 486.317 98.8069 486.317C98.945 486.317 99.0796 486.317 99.2178 486.31C100.651 486.255 102.032 485.903 103.282 485.302C103.728 485.35 104.201 485.381 104.694 485.381C105.806 485.381 106.818 485.229 107.733 484.98C108.455 485.136 109.183 485.212 109.902 485.212C112.968 485.212 115.903 483.844 117.878 481.461C118.22 481.306 118.672 481.116 119.011 480.971C119.37 480.819 119.726 480.67 120.071 480.518C122.019 479.682 123.607 478.55 124.919 477.258C125.106 479.14 125.441 481.288 126.276 483.595C127.771 487.709 131.677 490.417 136.007 490.417C136.225 490.417 136.442 490.41 136.66 490.396C139.401 490.223 141.881 488.983 143.649 487.056C143.98 487.028 144.312 486.987 144.647 486.928C147.889 486.352 150.548 484.31 151.998 481.565C154.892 480.712 159.074 479.237 162.768 475.624C163.873 474.557 165.31 472.934 166.712 471.027C168.369 474.816 171.287 477.296 174.164 479.513C174.212 479.551 174.257 479.586 174.305 479.62C177.472 481.972 181.833 484.676 187.503 484.676C193.173 484.676 198.605 481.917 205.587 477.147C205.642 477.109 205.694 477.075 205.746 477.037C206.975 476.163 208.101 475.275 209.14 474.374C210.583 476.339 212.427 477.79 214.617 479.499C217.752 482.031 221.001 484.632 225.915 484.632C229.365 484.632 232.048 483.26 234.006 482.259C235.739 481.375 238.129 480.149 240.111 477.804C241.278 478.76 242.483 479.541 243.667 480.059C247.525 481.741 250.757 482.863 254.009 482.863C257.3 482.863 259.731 481.73 261.351 480.577C264.058 478.74 265.363 475.997 266.423 472.979C267.511 474.902 268.972 476.823 270.885 478.774C274.241 482.252 278.433 485.947 285.671 485.947C288.537 485.947 291.438 485.419 296.113 484.379C296.154 484.369 296.192 484.362 296.234 484.352C300.654 483.312 305.695 481.817 309.687 479.085C309.901 479.254 310.119 479.423 310.336 479.589C310.385 479.627 310.433 479.662 310.481 479.696C313.648 482.048 318.009 484.749 323.679 484.749C329.349 484.749 334.781 481.986 341.763 477.22C341.818 477.182 341.87 477.147 341.922 477.109C354.267 468.334 356.653 458.09 356.483 451.044C356.483 451.013 356.483 450.979 356.483 450.948C356.369 447.597 356.11 444.095 354.608 440.697C355.869 439.619 356.832 438.279 357.502 436.68C357.523 436.635 357.54 436.587 357.557 436.542C358.787 433.465 359.905 428.844 360.33 426.996C361.825 420.479 361.832 418.396 361.283 416.189C361.211 415.896 361.124 415.606 361.024 415.319C358.918 409.213 350.651 402.678 343.98 401.836C343.134 401.725 342.232 401.67 341.304 401.67C335.344 401.67 327.477 404.019 322.167 407.382C320.961 408.139 319.856 408.888 318.827 409.652C316.224 405.407 313.337 402.958 309.894 402.029C309.746 401.988 309.601 401.953 309.449 401.919C308.475 401.701 307.456 401.597 306.327 401.597C305.623 401.597 304.839 401.639 303.917 401.732C306.065 399.767 307.874 397.94 309.28 396.441L309.276 396.434Z" fill="white"/>
<path id="blue-outline" d="M136 493C130.575 493 125.686 489.574 123.831 484.469C123.507 483.578 123.255 482.722 123.054 481.903C122.422 482.269 121.766 482.601 121.086 482.891C120.748 483.04 120.382 483.195 120.009 483.35C119.84 483.419 119.643 483.502 119.446 483.589C116.994 486.269 113.548 487.795 109.895 487.795C109.194 487.795 108.493 487.737 107.799 487.626C106.476 487.923 105.105 488.023 103.717 487.937C102.315 488.514 100.837 488.835 99.3109 488.897C94.6872 489.066 90.4019 486.832 87.9123 482.974C87.3321 482.072 86.8349 481.116 86.4067 480.069C85.7921 479.679 85.2085 479.237 84.6698 478.747C82.9433 480.536 80.937 481.924 78.6752 482.894C78.3368 483.043 77.9708 483.198 77.5979 483.354C77.4287 483.426 77.2319 483.506 77.035 483.592C74.5833 486.272 71.1371 487.799 67.4838 487.799C66.7828 487.799 66.0818 487.74 65.3878 487.626C64.0652 487.923 62.6943 488.023 61.3062 487.937C59.9042 488.514 58.4263 488.835 56.9001 488.897C53.8406 489.011 50.9262 488.072 48.5677 486.279C46.1886 488.417 43.1395 489.588 39.9178 489.588C38.136 489.588 36.4025 489.229 34.7658 488.517C34.3445 488.41 33.0461 488.272 32.4107 488.206C29.1476 487.864 24.2166 487.346 19.03 484.355L18.9437 484.307C10.6114 479.42 3.55327 469.715 1.77838 460.697C1.30876 458.308 1.50904 455.886 2.36195 453.635C1.95794 452.55 1.65407 451.545 1.43307 450.585L1.4089 450.485C0.749356 447.47 -0.00341797 443.495 -0.00341797 439.333V438.48C-0.00341797 435.261 1.22588 432.111 3.38752 429.738C4.35438 427.117 5.82195 424.903 7.75568 423.152C8.31162 422.648 8.90901 422.195 9.54092 421.798C10.0278 420.583 10.5561 419.433 11.1363 418.307C13.2806 414.162 16.0949 410.556 20.2628 406.619C22.269 404.723 24.8243 403.521 27.5453 403.179C30.3562 400.693 33.4985 399.069 36.9308 398.334C35.263 397.284 33.129 396.134 30.957 395.291C21.1468 391.475 15.0106 383.842 13.6812 373.795C12.7661 366.881 14.2993 360.094 16.0914 353.791C18.0666 346.846 18.0735 343.478 16.1398 332.596C14.427 322.967 16.1329 314.036 21.0673 306.776C25.9673 299.568 33.8541 294.311 43.8785 291.576L44.1133 291.51C44.3826 291.438 44.6554 291.372 44.9316 291.314C45.422 291.072 46.7411 290.309 48.4607 288.444C49.1962 287.646 50.2252 286.016 51.2232 284.437C52.8565 281.854 54.8558 278.687 57.7219 275.585C58.6853 253.91 63.0362 232.822 80.4985 201.179C88.7099 186.3 96.911 176.195 104.149 167.281C113.496 155.766 120.247 147.446 122.992 133.21C125.834 118.452 124.819 105.355 123.838 92.6942C122.992 81.7632 122.191 71.44 124.052 61.2792C129.232 33.0106 151.004 0 195.324 0C195.521 0 195.725 0 195.921 0C212.824 0.113972 226.35 3.66439 237.269 10.8585C247.732 17.7486 253.93 26.8353 258.163 33.9811C262.998 42.1387 266.365 53.643 268.167 68.1763C269.952 82.5402 269.728 95.768 269.438 102.375C268.72 118.683 269.559 129.424 276.044 139.468C277.953 142.428 282.035 147.708 286.758 153.821C301.389 172.755 323.486 201.355 330.364 223.987C337.709 248.16 339.58 266.091 336.542 283.595C338.382 285.446 340.053 287.563 341.524 289.905C345.064 295.531 347.509 302.521 349.004 311.276C349.594 314.737 349.981 315.213 352.975 318.926C354.874 321.281 357.24 324.21 359.988 328.434C366.922 339.089 366.608 348.227 365.123 354.019C363.023 362.208 357.498 368.901 349.142 373.381C348.237 373.868 347.136 374.438 345.879 375.094C337.605 379.407 320.392 388.377 311.158 398.216C310.789 398.61 310.416 399 310.036 399.394C310.212 399.436 310.385 399.477 310.557 399.525C313.958 400.441 316.897 402.575 319.48 406.015C319.898 405.739 320.326 405.462 320.768 405.183C326.445 401.587 334.884 399.076 341.283 399.076C342.322 399.076 343.334 399.139 344.29 399.263C351.904 400.226 361.041 407.476 363.455 414.476C363.579 414.832 363.686 415.198 363.776 415.564C364.512 418.507 364.298 421.201 362.834 427.58C362.395 429.483 361.242 434.259 359.943 437.506L359.874 437.678C359.304 439.046 358.548 440.272 357.616 441.339C358.745 444.662 358.952 447.964 359.052 450.861V450.993C359.242 458.66 356.68 469.791 343.406 479.227C343.341 479.271 343.272 479.32 343.203 479.368C335.803 484.421 330.233 487.35 323.658 487.35C317.601 487.35 312.967 484.711 309.535 482.238C305.367 484.67 300.612 485.989 296.81 486.88L296.645 486.918C291.797 487.996 288.761 488.545 285.653 488.545C277.78 488.545 272.998 484.715 268.999 480.577C268.24 479.803 267.542 479.026 266.9 478.246C265.926 479.917 264.641 481.461 262.811 482.708C260.273 484.507 257.224 485.457 253.989 485.457C250.287 485.457 246.761 484.248 242.607 482.435C241.872 482.114 241.122 481.706 240.366 481.216C238.495 482.863 236.557 483.855 235.166 484.566C233.097 485.623 229.972 487.222 225.894 487.222C220.038 487.222 216.126 484.065 212.98 481.527C211.505 480.373 210.086 479.261 208.808 477.973C208.29 478.374 207.762 478.764 207.227 479.144C207.165 479.189 207.096 479.234 207.03 479.282C199.623 484.342 194.053 487.267 187.479 487.267C180.904 487.267 176.222 484.29 172.734 481.699C172.675 481.658 172.617 481.61 172.554 481.565C170.458 479.948 168.183 478.077 166.349 475.583C165.728 476.288 165.116 476.937 164.543 477.489C160.931 481.019 156.953 482.711 153.697 483.748C151.75 486.776 148.662 488.842 145.071 489.481C144.988 489.495 144.909 489.508 144.826 489.522C142.633 491.574 139.819 492.793 136.794 492.983C136.521 493 136.249 493.007 135.979 493.007L136 493ZM34.6794 488.479L34.6932 488.486L34.6794 488.479ZM124.912 474.65C125.209 474.65 125.506 474.702 125.793 474.806C126.732 475.144 127.395 475.994 127.492 476.989C127.644 478.505 127.916 480.522 128.707 482.698C129.874 485.91 133.051 488.006 136.494 487.795C138.503 487.667 140.365 486.78 141.729 485.291C142.171 484.808 142.782 484.511 143.435 484.459C143.687 484.438 143.939 484.407 144.184 484.362C146.556 483.941 148.566 482.477 149.695 480.342C150.023 479.724 150.586 479.265 151.256 479.064C154.098 478.228 157.765 476.868 160.945 473.756C162.085 472.658 163.418 471.1 164.612 469.477C165.161 468.731 166.066 468.334 166.988 468.437C167.91 468.541 168.704 469.128 169.077 469.974C170.503 473.231 173.148 475.452 175.735 477.445L175.835 477.52C178.684 479.638 182.579 482.066 187.489 482.066C192.724 482.066 197.548 479.472 204.109 474.989L204.226 474.906C205.345 474.112 206.422 473.266 207.431 472.395C207.98 471.922 208.698 471.701 209.416 471.78C210.134 471.86 210.787 472.24 211.215 472.823C212.462 474.523 214.192 475.873 216.198 477.441C216.208 477.448 216.219 477.458 216.229 477.465C219.13 479.807 221.868 482.021 225.898 482.021C228.726 482.021 230.988 480.864 232.807 479.935C234.437 479.102 236.464 478.066 238.115 476.115C239.03 475.034 240.642 474.885 241.737 475.78C242.776 476.629 243.771 477.265 244.689 477.666C248.246 479.22 251.192 480.252 253.996 480.252C256.185 480.252 258.15 479.644 259.835 478.45C259.849 478.439 259.866 478.429 259.88 478.418C261.91 477.037 262.98 474.896 263.961 472.105C264.3 471.145 265.166 470.471 266.178 470.382C267.193 470.288 268.164 470.803 268.664 471.687C269.673 473.469 271.002 475.189 272.722 476.947C275.854 480.19 279.421 483.343 285.653 483.343C288.278 483.343 291.04 482.836 295.533 481.838L295.623 481.817C299.483 480.909 304.404 479.534 308.206 476.933C309.141 476.291 310.385 476.332 311.275 477.033C311.486 477.199 311.693 477.362 311.904 477.524L312.007 477.603C314.856 479.72 318.751 482.148 323.658 482.148C328.893 482.148 333.717 479.555 340.278 475.072L340.395 474.989C346.701 470.506 354.152 462.725 353.869 451.1V451.024C353.766 447.991 353.552 444.772 352.212 441.737C351.749 440.687 352.029 439.461 352.899 438.715C353.855 437.896 354.57 436.901 355.081 435.672L355.126 435.565C356.29 432.66 357.367 428.191 357.778 426.406C359.277 419.885 359.132 418.372 358.742 416.808C358.686 416.587 358.621 416.369 358.548 416.155C356.753 410.947 349.363 405.124 343.631 404.399C342.888 404.302 342.098 404.253 341.279 404.253C335.855 404.253 328.389 406.485 323.53 409.562C322.363 410.294 321.327 410.999 320.35 411.724C319.767 412.156 319.028 412.325 318.313 412.187C317.598 412.048 316.976 411.617 316.597 410.995C314.349 407.331 311.997 405.276 309.2 404.523C309.086 404.492 308.979 404.464 308.869 404.44C308.085 404.267 307.246 404.181 306.31 404.181C305.678 404.181 304.974 404.222 304.159 404.302C303.04 404.412 301.987 403.801 301.531 402.779C301.075 401.756 301.324 400.561 302.145 399.805C303.972 398.133 305.73 396.4 307.37 394.652C317.208 384.17 334.95 374.925 343.475 370.48C344.715 369.834 345.796 369.271 346.687 368.794C353.728 365.023 358.362 359.462 360.088 352.721C361.314 347.937 361.535 340.329 355.63 331.256C353.027 327.253 350.755 324.438 348.928 322.176C345.761 318.256 344.698 316.937 343.88 312.14C342.502 304.072 340.292 297.7 337.122 292.657C335.623 290.271 333.89 288.164 331.973 286.399C331.314 285.791 331.017 284.89 331.183 284.009C334.401 266.944 332.667 249.444 325.392 225.489C318.789 203.766 297.042 175.621 282.653 156.999C277.85 150.782 273.706 145.419 271.675 142.276C264.434 131.061 263.478 119.519 264.244 102.14C264.527 95.6954 264.745 82.7993 263.008 68.8117C261.292 54.9934 258.157 44.1626 253.688 36.6232C249.738 29.9575 243.978 21.4994 234.403 15.1894C224.347 8.5652 211.747 5.29454 195.877 5.18747C195.69 5.18747 195.497 5.18747 195.31 5.18747C154.181 5.18747 133.963 35.9048 129.149 62.2082C127.412 71.706 128.186 81.7044 129.004 92.2866C130.012 105.293 131.052 118.742 128.079 134.187C125.088 149.705 117.992 158.446 108.172 170.548C101.072 179.296 93.0228 189.208 85.0358 203.683C67.8049 234.908 63.7061 255.478 62.8601 276.763C62.8359 277.402 62.5735 278.01 62.128 278.469C59.262 281.415 57.235 284.624 55.6051 287.204C54.4311 289.062 53.3227 290.816 52.266 291.959C49.6348 294.809 47.4904 295.876 46.6893 296.204C46.5201 296.273 46.344 296.325 46.1644 296.356C45.9365 296.398 45.7051 296.449 45.4772 296.511L45.239 296.577C36.4232 298.981 29.5481 303.516 25.3561 309.687C21.1986 315.807 19.7759 323.412 21.2469 331.681C23.3084 343.289 23.2808 347.464 21.0812 355.204C19.4409 360.972 18.0355 367.13 18.8263 373.108C19.8967 381.19 24.8726 387.348 32.8389 390.446C35.339 391.416 38.2223 392.932 40.5566 394.497C44.0787 396.859 45.3702 398.593 45.0145 400.485C44.9351 400.914 44.3792 403.055 41.3646 403.055C37.1898 403.055 33.6193 404.526 30.4459 407.555C29.9936 407.987 29.4031 408.239 28.7815 408.27C26.9341 408.36 25.1731 409.113 23.8298 410.384C20.1039 413.907 17.6142 417.084 15.7496 420.686C15.1246 421.898 14.5721 423.145 14.061 424.499C13.8366 425.093 13.4015 425.587 12.8386 425.881C12.262 426.185 11.7233 426.558 11.2398 426.996C9.81717 428.284 8.79506 429.901 8.11134 431.945C7.98358 432.329 7.76604 432.677 7.47943 432.964C6.02223 434.411 5.18658 436.421 5.18658 438.476V439.329C5.18658 442.99 5.87374 446.61 6.47458 449.352L6.48839 449.418C6.71284 450.402 7.06506 451.473 7.5623 452.695C7.842 453.376 7.81438 454.146 7.49669 454.805C6.75773 456.335 6.54019 458.024 6.86823 459.692C8.37723 467.356 14.4236 475.638 21.568 479.828L21.6026 479.848C25.8533 482.297 29.7864 482.711 32.9494 483.043C34.8037 483.236 35.9847 483.381 36.7754 483.73C37.7699 484.172 38.8266 484.393 39.9143 484.393C41.9723 484.393 43.913 483.596 45.3736 482.148C45.6913 481.834 45.9952 481.472 46.2784 481.064C46.7411 480.401 47.4904 479.99 48.2984 479.955C49.1064 479.924 49.8868 480.27 50.4048 480.895C51.9518 482.763 54.2584 483.803 56.6894 483.703C57.753 483.661 58.7785 483.406 59.735 482.946C60.1701 482.736 60.657 482.656 61.1405 482.708C62.3318 482.839 63.5196 482.76 64.6281 482.459C65.0252 482.352 65.4465 482.338 65.8505 482.428C66.3857 482.542 66.9313 482.601 67.4769 482.601C69.7974 482.601 71.9763 481.575 73.4542 479.79C73.7028 479.489 74.017 479.251 74.3692 479.085C74.7353 478.916 75.2222 478.712 75.5847 478.56C75.93 478.415 76.2754 478.27 76.6068 478.125C78.9929 477.103 80.9094 475.504 82.484 473.231C82.9778 472.516 83.8065 472.098 84.6629 472.115C85.5296 472.129 86.3307 472.578 86.8004 473.31C87.5255 474.44 88.5304 475.365 89.7079 475.987C90.2845 476.291 90.7231 476.799 90.9406 477.41C91.3101 478.443 91.7417 479.341 92.2701 480.156C93.7618 482.47 96.3413 483.817 99.1037 483.706C100.167 483.665 101.189 483.409 102.149 482.95C102.584 482.739 103.071 482.66 103.555 482.711C104.746 482.843 105.934 482.763 107.046 482.463C107.446 482.356 107.864 482.342 108.268 482.432C108.803 482.546 109.349 482.604 109.895 482.604C112.215 482.604 114.394 481.579 115.872 479.793C116.121 479.493 116.435 479.251 116.79 479.088C117.156 478.919 117.64 478.715 118.003 478.564C118.351 478.418 118.693 478.273 119.025 478.128C120.575 477.465 121.898 476.574 123.092 475.396C123.586 474.909 124.242 474.65 124.912 474.65V474.65Z" fill="#0739EF"/>
<g id="body">
<path id="blue-body" d="M195.839 12.9583C226.44 13.1621 238.357 25.9615 247.024 40.588C255.691 55.2145 257.314 83.3864 256.503 101.805C255.691 120.224 256.772 133.496 265.17 146.5C273.564 159.503 309.583 200.132 317.978 227.758C326.372 255.388 326.645 272.18 322.039 289.245L292.518 341.251L260.429 373.212C260.429 373.212 247.835 378.9 237.814 383.234C227.794 387.569 217.234 384.861 206.398 383.234C195.566 381.608 165.776 385.4 151.694 388.38C137.613 391.361 117.844 379.442 117.844 379.442C117.844 379.442 70.45 312.537 70.45 287.076C70.45 261.615 73.1572 241.3 91.8453 207.44C110.53 173.584 130.03 165.184 135.717 135.662C141.404 106.136 133.279 82.8442 136.801 63.6105C140.323 44.3802 155.486 12.6889 195.839 12.9583V12.9583Z" fill="#022DF4"/>
<path id="white-body" d="M150.948 131.597C150.948 131.597 149.039 155.607 142.032 175.98C135.026 196.354 117.702 224.218 113.721 239.442C109.739 254.663 108.102 274.801 108.102 274.801C108.102 274.801 96.1616 254.898 100.609 238.037C105.057 221.176 116.531 201.272 117.933 193.543C117.933 193.543 110.257 208.027 107.843 212.047C105.43 216.068 97.2114 232.152 95.067 244.126C92.9226 256.1 95.5124 269.859 102.391 278.973C109.27 288.088 121.866 293.182 133.123 303.008C144.381 312.837 153.583 324.362 151.528 333.387C149.474 342.411 134.643 343.351 129.014 341.182C123.386 339.013 139.467 349.291 139.467 349.291C139.467 349.291 157.067 368.86 187.796 368.86C218.525 368.86 252.297 341.876 252.297 341.876L268.764 284.924L313.188 292.208C313.188 292.208 315.492 283.819 313.188 277.274C310.885 270.729 295.585 261.881 290.239 261.049C290.239 261.049 293.651 234.224 282.68 214.866C271.713 195.508 263.326 188.593 262.221 187.948C261.116 187.302 260.653 187.395 260.194 187.671C259.735 187.948 259.365 188.87 261.761 190.527C264.158 192.185 276.416 205.185 281.669 223.438C286.921 241.691 282.314 258.282 282.314 258.282C282.314 258.282 275.954 257.36 273.467 257.267C273.467 257.267 270.336 237.539 264.804 225.741C259.275 213.944 245.725 188.593 239.088 170.43C232.452 152.271 224.803 128.578 224.803 128.578" fill="white"/>
</g>

<g id="right-foot"><path d="M248.647 298.722C248.301 330.14 242.69 338.267 239.979 352.624C237.272 366.981 225.625 384.802 245.125 400.838C264.624 416.873 287.373 400.838 299.828 387.565C312.287 374.293 334.221 363.728 341.804 359.666C349.387 355.604 354.014 347.747 346.96 336.913C339.908 326.079 335.575 324.994 333.679 313.891C331.783 302.783 327.45 291.138 315.533 289.784C303.616 288.43 290.629 292.636 281.682 285.449C262.456 270.011 248.716 292.212 248.643 298.722H248.647Z" fill="#F4D404"/>
<path d="M263.146 410.121C256.019 410.121 249.362 407.68 243.477 402.844C226.64 388.998 231.302 373.529 235.048 361.096C236.002 357.936 236.899 354.952 237.431 352.144C238.218 347.975 239.227 344.38 240.29 340.574C242.877 331.346 245.808 320.888 246.05 298.694C246.105 293.548 251.727 283.453 260.405 279.35C265.522 276.929 273.654 275.672 283.309 283.425C288.554 287.639 295.813 287.356 303.492 287.055C307.529 286.9 311.707 286.737 315.827 287.204C322.046 287.912 327.001 291.137 330.561 296.798C333.178 300.96 335.033 306.41 336.238 313.452C337.398 320.242 339.466 322.808 342.899 327.06C344.701 329.294 346.746 331.826 349.135 335.497C352.64 340.885 353.8 346.031 352.578 350.793C351.404 355.373 348.103 359.234 343.03 361.952C342.163 362.419 341.107 362.968 339.902 363.596C330.996 368.238 312.463 377.898 301.721 389.34C297.069 394.296 287.546 403.262 276.037 407.617C271.62 409.289 267.304 410.118 263.146 410.118V410.121ZM251.243 298.749C250.991 321.627 247.963 332.437 245.29 341.973C244.254 345.668 243.277 349.156 242.531 353.104C241.951 356.181 241.012 359.296 240.017 362.591C236.374 374.679 232.607 387.182 246.775 398.831C254.683 405.334 263.909 406.657 274.203 402.761C284.735 398.776 293.596 390.414 297.943 385.786C309.29 373.698 328.351 363.766 337.509 358.993C338.693 358.374 339.732 357.836 340.585 357.376C343.206 355.971 346.542 353.467 347.557 349.505C348.403 346.207 347.471 342.446 344.791 338.329C342.547 334.879 340.592 332.458 338.866 330.32C335.178 325.751 332.512 322.449 331.127 314.326C328.734 300.3 323.686 293.32 315.246 292.36C311.517 291.935 307.543 292.091 303.699 292.239C295.402 292.56 286.821 292.895 280.063 287.47C273.989 282.593 268.122 281.439 262.625 284.037C259.531 285.501 256.561 288.191 254.265 291.614C252.069 294.888 251.254 297.672 251.243 298.746V298.749Z" fill="#022DF4"/>
</g>

<path id="right-hand" d="M282.383 263.68C299.138 269.282 308.762 276.045 309.974 281.232C311.189 286.42 308.869 294.26 296.842 300.88C284.811 307.505 271.213 308.434 265.746 295.386C260.28 282.337 262.135 270.968 265.746 266.108C269.358 261.253 277.294 261.978 282.383 263.68V263.68Z" fill="#022DF4"/>

<g id="left-foot">
<path d="M47.9738 306.576C36.0571 309.826 29.2891 317.683 31.4542 329.871C33.6193 342.059 33.9024 348.02 31.0536 358.039C28.2048 368.062 26.8512 377 36.5993 380.792C46.3474 384.585 68.5542 382.834 81.2857 388.853C94.0138 394.877 110.533 404.899 127.868 401.646C145.199 398.396 159.553 387.289 151.159 366.705C142.765 346.121 125.703 333.387 117.847 316.595C109.995 299.803 100.785 280.424 84.5351 280.089C68.2848 279.758 66.3891 291.946 59.8904 298.988C53.3917 306.03 47.9738 306.572 47.9738 306.572V306.576Z" fill="#F4D404"/>
<path d="M120.944 404.879C107.85 404.879 95.6091 398.81 85.4571 393.782C83.6097 392.867 81.8624 392 80.1738 391.202C73.4127 388 63.3124 387.085 54.4 386.28C47.1243 385.621 40.2492 384.999 35.6566 383.213C30.3008 381.131 27.2276 377.39 26.5266 372.096C25.9223 367.52 27.1447 362.298 28.5536 357.335C31.2608 347.813 31.0122 342.242 28.8954 330.33C26.606 317.458 33.3119 307.891 47.2866 304.079L47.5318 304.013L47.6941 304.003C48.0256 303.951 52.5353 303.139 57.9774 297.24C59.5105 295.576 60.8054 293.531 62.1729 291.365C66.1543 285.066 71.1129 277.233 84.58 277.506C102.588 277.875 112.346 298.739 120.188 315.507C123.624 322.853 128.949 329.467 134.588 336.467C141.587 345.16 148.828 354.15 153.552 365.738C157.119 374.486 157.116 382.246 153.538 388.808C149.36 396.476 140.41 401.946 128.338 404.209C125.848 404.675 123.379 404.885 120.941 404.885L120.944 404.879ZM48.4917 309.124C34.2477 313.079 32.7491 322.331 34.0095 329.415C36.2471 342 36.513 348.324 33.5502 358.747C32.2933 363.175 31.1952 367.772 31.6752 371.409C32.1275 374.821 33.9369 376.969 37.542 378.371C41.4509 379.891 47.9703 380.482 54.873 381.107C64.2136 381.953 74.8008 382.913 82.3976 386.505C84.1276 387.323 85.8956 388.201 87.7637 389.126C97.4048 393.903 109.052 399.674 121.014 399.674C123.134 399.674 125.257 399.494 127.388 399.094C137.899 397.122 145.568 392.583 148.987 386.311C151.781 381.186 151.701 374.918 148.752 367.686C144.315 356.803 137.319 348.113 130.551 339.71C124.712 332.458 119.194 325.606 115.492 317.693C111.752 309.694 107.512 300.628 102.27 293.742C96.7107 286.434 90.8888 282.818 84.4798 282.686C73.9306 282.476 70.519 287.874 66.5652 294.128C65.1322 296.394 63.6508 298.739 61.7965 300.749C55.391 307.688 49.8522 308.917 48.4917 309.121V309.124Z" fill="#022DF4"/>
</g>

<g id="face">
<path id="right-eye-white" d="M207.161 120.092C217.868 120.092 226.547 108.604 226.547 94.4314C226.547 80.2592 217.868 68.7703 207.161 68.7703C196.455 68.7703 187.776 80.2592 187.776 94.4314C187.776 108.604 196.455 120.092 207.161 120.092Z" fill="white"/>

<path id="left-eye-white" d="M159.808 113.953C167.621 113.779 173.747 104.343 173.491 92.8784C173.235 81.4138 166.694 72.2615 158.881 72.4361C151.068 72.6108 144.942 82.0463 145.198 93.5109C145.454 104.975 151.995 114.128 159.808 113.953Z" fill="white"/>

<path id="left-eye-closed" class="pupil-closed" d="M166.71 99.2079C161.197 98.4549 155.729 97.7953 150.606 100.434L150.354 100.199C152.522 95.7127 158.67 94.9425 162.933 96.514C164.387 97.0458 165.761 97.8022 166.858 98.9039L166.707 99.2148L166.71 99.2079Z" fill="#022DF4"/>

<path id="right-eye-closed" class="pupil-closed" d="M215.905 99.2079C210.392 98.4549 204.924 97.7953 199.801 100.434L199.549 100.199C201.717 95.7127 207.865 94.9425 212.129 96.514C213.582 97.0458 214.956 97.8022 216.054 98.9039L215.902 99.2148L215.905 99.2079Z" fill="#022DF4"/>
<path id="right-eye-pupil" class="pupil-open" d="M206.882 110.453C212.525 110.453 217.099 104.398 217.099 96.9284C217.099 89.4589 212.525 83.4037 206.882 83.4037C201.238 83.4037 196.664 89.4589 196.664 96.9284C196.664 104.398 201.238 110.453 206.882 110.453Z" fill="#022DF4"/>

<path id="left-eye-pupil" class="pupil-open" d="M158.991 107.847C162.898 107.759 165.955 102.79 165.82 96.7465C165.685 90.7033 162.409 85.8752 158.502 85.9625C154.596 86.0498 151.538 91.0195 151.673 97.0626C151.808 103.106 155.085 107.934 158.991 107.847Z" fill="#022DF4"/>
<g id="beak">
<path d="M179.996 98.2788C168.977 98.8763 166.456 102.206 156.839 110.198C147.226 118.189 138.559 118.728 143.434 129.97C148.31 141.212 154.54 139.316 159.819 146.358C165.099 153.4 175.255 155.838 181.619 155.569C187.983 155.3 195.566 152.184 201.522 147.715C207.479 143.246 216.012 142.435 220.072 138.504C224.133 134.577 230.363 129.293 229.551 122.928C228.74 116.563 220.884 112.228 212.489 109.79C204.095 107.352 198.135 103.155 194.074 101.121C190.013 99.0904 184.468 98.0336 179.992 98.2788H179.996Z" fill="#F4D404"/>
<path d="M180.607 156.367C173.549 156.367 164.177 153.466 159.198 146.824C157.147 144.092 154.978 142.783 152.682 141.395C149.26 139.33 145.717 137.192 142.72 130.277C138.849 121.353 143.245 118.514 149.329 114.584C151.459 113.206 153.877 111.645 156.342 109.597C157.492 108.64 158.542 107.749 159.516 106.923C166.708 100.824 169.992 98.0405 179.951 97.4983L179.992 98.2753L179.951 97.4983C184.678 97.2427 190.359 98.3893 194.423 100.424C195.486 100.955 196.64 101.612 197.976 102.371C201.799 104.547 206.557 107.255 212.707 109.041C218.857 110.826 229.323 114.991 230.325 122.828C231.119 129.051 225.656 134.256 221.668 138.055C221.305 138.401 220.953 138.736 220.615 139.064C218.432 141.174 215.117 142.4 211.605 143.699C208.273 144.932 204.827 146.206 201.989 148.333C195.759 153.006 187.966 156.073 181.65 156.343C181.308 156.356 180.959 156.363 180.604 156.363L180.607 156.367ZM181.308 99.0213C180.88 99.0213 180.455 99.0317 180.037 99.0559C170.6 99.567 167.651 102.068 160.524 108.112C159.547 108.94 158.493 109.835 157.337 110.795C154.799 112.902 152.343 114.491 150.175 115.893C144.132 119.799 140.803 121.947 144.149 129.659C146.95 136.114 150.123 138.031 153.486 140.062C155.81 141.464 158.21 142.915 160.441 145.888C165.334 152.412 174.83 155.075 181.584 154.788C187.603 154.533 195.065 151.58 201.056 147.09C204.074 144.824 207.631 143.512 211.067 142.238C214.42 140.998 217.586 139.827 219.534 137.941C219.876 137.613 220.228 137.275 220.594 136.926C224.551 133.158 229.475 128.468 228.781 123.025C228.401 120.041 225.749 114.449 212.275 110.536C205.949 108.699 200.897 105.825 197.206 103.725C195.89 102.976 194.751 102.33 193.729 101.815C190.245 100.075 185.5 99.0179 181.305 99.0179L181.308 99.0213Z" fill="#022DF4"/>
<path d="M185.369 106.181C188.653 105.621 190.908 106.64 191.957 107.783C193.007 108.927 191.864 111.517 189.761 110.45C187.655 109.386 186.605 108.371 185.369 108.329C184.133 108.288 184.398 106.347 185.369 106.181Z" fill="#022DF4"/>
<path d="M168.114 108.837C167.717 110.056 170.997 111.033 172.14 109.98C173.283 108.927 175.8 108.377 176.077 108.011C176.353 107.645 175.938 106.592 174.336 106.226C172.734 105.86 169.029 106.022 168.114 108.833V108.837Z" fill="#022DF4"/>
<path d="M178.221 141.626C160.79 141.626 151.097 125.957 150.693 125.29C150.396 124.8 150.551 124.161 151.042 123.864C151.532 123.567 152.171 123.722 152.468 124.213C152.585 124.403 161.998 139.551 178.221 139.551C197.165 139.551 212.776 122.099 212.931 121.923C213.311 121.495 213.967 121.453 214.396 121.83C214.827 122.21 214.869 122.866 214.489 123.294C213.829 124.043 198.114 141.626 178.221 141.626V141.626Z" fill="#022DF4"/>
</g>
</g>


<path d="M206.488 411.679C209.206 412.007 214.226 415.879 215.048 418.265C215.297 419.253 213.239 428.554 211.757 432.26C211.346 433.247 205.583 433.493 203.363 432.671C200.977 431.683 200.728 431.272 201.139 429.296C201.878 426.084 197.434 426.993 194.965 430.778C193.759 432.59 195.652 434.895 200.645 437.692C208.795 442.22 209.699 443.536 209.944 450.865C210.11 457.613 206.571 463.377 199.741 468.233C189.616 475.148 186.571 475.476 180.483 470.948C175.462 467.08 174.968 465.681 176.698 460.166C177.769 456.46 178.428 455.393 182.955 454.567C190.611 453.907 189.951 453.99 190.856 456.625C191.515 458.684 193.08 456.46 195.3 453.496C196.343 452.124 194.697 450.066 190.362 447.321C184.354 443.536 182.213 444.603 180.731 439.83C178.922 433.986 179.167 430.363 181.964 425.508C184.267 421.228 186.657 418.759 191.512 415.713C195.79 412.995 202.707 411.185 206.491 411.679H206.488Z" fill="#022DF4"/>
<path d="M232.579 412.915C240.563 415.14 241.223 417.194 238.588 429.462C236.53 439.012 234.472 450.948 234.144 455.147L233.567 463.954C233.156 470.458 232.99 470.786 229.289 472.682C225.584 474.575 225.338 474.492 221.06 471.034C218.042 468.674 216.642 465.821 216.861 462.473C217.027 459.755 218.094 451.524 219.164 444.279C220.318 436.953 221.716 427.566 222.293 423.287C222.869 419.087 223.857 414.891 224.596 413.82C226.654 411.185 226.571 411.185 232.579 412.915V412.915Z" fill="#022DF4"/>
<path d="M262.621 413.983C270.85 412.995 272.991 413.572 276.53 417.851C278.395 420.045 278.806 422.13 277.763 424.105C276.776 426.247 275.622 427.234 274.058 427.234L269.286 427.4C267.145 427.483 266.817 427.811 267.476 429.787C267.804 431.02 267.228 434.643 265.995 437.855C264.842 440.984 262.21 449.791 260.235 457.199C258.177 464.773 256.119 471.359 255.463 471.687C254.393 472.592 252.335 472.181 247.808 470.205C245.998 469.463 242.293 464.939 241.634 462.632C241.305 461.561 247.891 442.628 251.347 434.232C252.83 430.884 252.747 429.649 251.098 430.526C246.82 432.584 245.995 432.007 244.351 426.081C243.115 422.296 242.953 420.071 243.857 418.673C245.011 416.531 249.372 415.461 262.621 413.979V413.983Z" fill="#022DF4"/>
<path d="M290.657 414.397C301.192 412.093 305.72 411.351 307.201 411.682C309.342 412.259 313.62 420.821 313.126 423.536C312.715 426.005 312.878 426.005 306.13 425.677C302.509 425.566 299.876 427.02 298.23 430.039C295.018 435.72 295.512 437.447 299.96 436.048C304.487 434.65 307.532 436.297 308.192 440.41C308.769 445.021 306.711 447.408 301.03 448.23C293.13 449.383 292.719 449.628 290.743 455.061C289.756 458.024 289.262 460.411 289.59 460.66C289.839 460.825 293.295 460.166 297.163 459.178C302.429 457.862 304.404 457.862 305.64 459.012C306.711 460 307.039 460.905 306.462 461.975C306.051 462.718 305.968 464.2 306.134 465.187C307.37 468.81 303.337 471.691 293.872 473.911C284.241 476.053 282.843 475.887 278.316 471.193C273.872 466.666 273.212 463.291 275.187 455.389C276.092 451.521 276.503 447.238 276.092 445.674C275.104 442.545 276.092 439.992 278.727 439.253C279.797 439.005 280.457 438.349 280.374 437.938C280.125 437.527 280.95 435.14 282.183 432.75C283.83 429.127 283.913 427.483 282.843 423.201C281.527 418.756 281.61 418.096 283.83 416.78C284.984 415.958 288.192 414.887 290.661 414.394L290.657 414.397Z" fill="#022DF4"/>
<path d="M342.667 411.758C345.385 412.086 350.406 415.958 351.228 418.345C351.473 419.332 349.418 428.633 347.937 432.339C347.526 433.327 341.763 433.572 339.542 432.75C337.156 431.762 336.908 431.351 337.319 429.376C338.061 426.164 333.613 427.072 331.144 430.857C329.938 432.669 331.832 434.974 336.825 437.772C344.974 442.3 345.879 443.615 346.124 450.944C346.29 457.693 342.75 463.457 335.917 468.313C325.792 475.227 322.747 475.555 316.659 471.027C311.638 467.159 311.144 465.761 312.874 460.245C313.945 456.539 314.604 455.472 319.131 454.647C326.787 453.987 326.127 454.07 327.032 456.705C327.691 458.763 329.256 456.539 331.476 453.576C332.519 452.204 330.873 450.145 326.538 447.401C320.53 443.615 318.389 444.683 316.907 439.91C315.098 434.066 315.343 430.443 318.14 425.587C320.443 421.308 322.833 418.838 327.688 415.792C331.966 413.074 338.883 411.264 342.667 411.758V411.758Z" fill="#022DF4"/>
<path d="M44.0994 422.344C44.0994 425.331 45.8052 427.721 45.8052 430.709C45.8052 432.93 45.377 435.233 44.6968 437.368C43.8439 439.927 41.5407 442.317 41.7099 445.049C41.2817 444.109 40.5151 442.914 39.3203 442.914C38.3811 442.914 37.6974 443.681 37.2726 444.451C37.359 443.684 37.4418 443.001 37.4418 442.23C37.4418 440.524 37.0137 439.329 35.0523 439.585C35.9052 437.879 37.0137 435.402 37.0137 433.441C37.0137 431.904 36.1607 429.258 34.2823 429.258C30.3561 429.258 22.932 441.975 22.5072 445.56C22.4209 446.071 22.4209 446.499 22.4209 447.01C22.4209 449.058 23.0183 450.34 25.2352 450.084C24.7241 451.621 24.5515 453.158 24.5515 454.778C24.5515 458.021 25.577 464.935 29.9279 464.935C30.439 464.935 30.9535 464.849 31.4645 464.68C34.0233 473.984 38.1221 472.105 39.9108 476.288C35.4736 474.326 30.5253 475.69 25.4907 472.789C20.5424 469.888 15.5907 463.485 14.4822 457.852C15.0796 458.449 15.9325 459.302 16.8718 459.302C17.7247 459.302 17.9802 458.363 17.9802 457.679C17.9802 455.458 14.7378 450.34 14.0541 447.352C13.4567 444.62 12.9456 441.719 12.9456 438.987V438.134C13.2011 438.304 13.4567 438.476 13.7985 438.476C15.2488 438.476 14.6514 434.038 16.4436 432.415C16.4436 433.354 16.9547 435.147 18.1494 435.147C18.8331 435.147 19.0887 434.38 19.2579 433.866C21.3055 425.673 22.9285 421.574 29.1579 415.685V416.196C29.1579 417.219 29.5861 418.5 30.7808 418.5C32.7422 418.5 34.707 410.477 41.3611 410.477C40.7637 411.244 40.3355 412.183 40.3355 413.123C40.3355 414.148 41.1021 414.915 42.1277 414.915C42.8943 414.915 43.578 414.573 44.089 413.976C43.9198 414.487 43.8335 415.001 43.8335 415.513C43.8335 416.366 44.1754 417.136 45.1146 417.136C45.3701 417.136 45.712 417.049 45.9675 416.967C44.6864 418.417 44.089 420.379 44.089 422.344H44.0994Z" fill="#FF0000"/>
<path d="M84.0344 446.582C84.0344 447.266 84.1208 448.717 85.1429 448.717C85.9095 448.717 86.6795 448.033 87.1906 447.608C86.424 453.925 81.7278 454.522 79.6801 459.558C78.2298 463.056 77.3769 469.031 73.5371 470.655C71.403 471.594 68.758 472.447 67.4769 474.495C67.3906 473.728 67.2213 472.447 66.1958 472.447C64.6592 472.447 63.5507 474.668 62.2696 474.668C61.1612 474.668 60.0493 473.901 58.858 473.901C57.5769 473.901 56.9795 474.498 56.3821 475.607C54.6763 472.962 55.2737 466.562 52.6286 466.562C51.4338 466.562 51.0056 467.843 50.9228 468.783C48.7024 464.856 47.5111 460.76 47.5111 456.235C47.5111 453.248 48.1948 450.347 48.1948 447.359C48.1948 444.541 47.6838 441.726 47.6838 438.911C47.6838 434.729 48.7093 430.975 51.4373 427.732C51.4373 427.987 51.3509 428.329 51.3509 428.585C51.3509 429.096 51.5201 430.291 52.2902 430.291C55.619 430.291 55.1908 419.792 61.251 417.402C60.9954 417.999 60.7399 418.683 60.7399 419.281C60.7399 419.622 60.8262 419.964 61.251 419.964C64.4934 419.964 67.9085 410.833 74.3934 410.833C75.16 410.833 75.93 411.002 76.6966 411.261C76.1856 411.689 75.5882 412.37 75.5882 413.14C75.5882 415.361 79.7699 416.894 81.4757 417.578C84.1208 418.604 84.6318 421.93 84.6318 424.492C84.6318 425.518 84.4626 426.54 84.4626 427.566C84.4626 428.505 85.06 429.614 86.1685 429.614C87.0214 429.614 87.3632 428.847 87.3632 428.077C87.7051 429.358 87.9606 430.636 87.9606 431.918C87.9606 437.209 84.0344 441.305 84.0344 446.596V446.582ZM71.5757 434.463C71.1475 434.463 70.6365 434.549 70.2117 434.719C70.2981 434.29 70.4673 433.779 70.4673 433.354C70.4673 432.501 70.0391 431.648 69.1033 431.648C67.3111 431.648 66.6274 433.783 66.9693 435.233C62.1039 435.831 59.7143 441.035 59.7143 445.391C59.7143 446.33 59.7143 449.829 61.251 449.829C61.762 449.829 62.3594 449.4 62.7013 449.062C62.0175 453.072 58.8614 456.487 58.8614 460.67C58.8614 463.146 60.0562 465.45 61.251 467.498C61.4202 465.194 62.9568 463.229 65.26 462.718C65.0908 463.06 65.0908 463.315 65.0908 463.657C65.0908 464.68 65.7745 465.194 66.7137 465.194C70.5536 465.194 70.0425 461.44 70.0425 458.794C70.0425 453.075 75.5053 450.685 75.5053 441.467C75.5053 439.077 74.7387 434.47 71.5791 434.47L71.5757 434.463Z" fill="#FF0000"/>
<path d="M126.449 446.582C126.449 447.266 126.535 448.717 127.557 448.717C128.324 448.717 129.094 448.033 129.605 447.608C128.838 453.925 124.142 454.522 122.094 459.558C120.644 463.056 119.791 469.031 115.951 470.655C113.817 471.594 111.172 472.447 109.891 474.495C109.805 473.728 109.636 472.447 108.61 472.447C107.073 472.447 105.965 474.668 104.684 474.668C103.575 474.668 102.464 473.901 101.272 473.901C99.9912 473.901 99.3938 474.498 98.7964 475.607C97.0906 472.962 97.688 466.562 95.0429 466.562C93.8481 466.562 93.4199 467.843 93.3371 468.783C91.1167 464.856 89.9254 460.76 89.9254 456.235C89.9254 453.248 90.6091 450.347 90.6091 447.359C90.6091 444.541 90.0981 441.726 90.0981 438.911C90.0981 434.729 91.1236 430.975 93.8516 427.732C93.8516 427.987 93.7653 428.329 93.7653 428.585C93.7653 429.096 93.9345 430.291 94.7045 430.291C98.0333 430.291 97.6051 419.792 103.665 417.402C103.41 417.999 103.154 418.683 103.154 419.281C103.154 419.622 103.241 419.964 103.665 419.964C106.908 419.964 110.323 410.833 116.808 410.833C117.574 410.833 118.344 411.002 119.111 411.261C118.6 411.689 118.003 412.37 118.003 413.14C118.003 415.361 122.184 416.894 123.89 417.578C126.535 418.604 127.046 421.93 127.046 424.492C127.046 425.518 126.877 426.54 126.877 427.566C126.877 428.505 127.474 429.614 128.583 429.614C129.436 429.614 129.778 428.847 129.778 428.077C130.119 429.358 130.375 430.636 130.375 431.918C130.375 437.209 126.449 441.305 126.449 446.596V446.582ZM113.99 434.463C113.562 434.463 113.051 434.549 112.626 434.719C112.712 434.29 112.882 433.779 112.882 433.354C112.882 432.501 112.453 431.648 111.518 431.648C109.725 431.648 109.042 433.783 109.384 435.233C104.518 435.831 102.129 441.035 102.129 445.391C102.129 446.33 102.129 449.829 103.665 449.829C104.176 449.829 104.774 449.4 105.116 449.062C104.432 453.072 101.276 456.487 101.276 460.67C101.276 463.146 102.47 465.45 103.665 467.498C103.834 465.194 105.371 463.229 107.674 462.718C107.505 463.06 107.505 463.315 107.505 463.657C107.505 464.68 108.189 465.194 109.128 465.194C112.968 465.194 112.457 461.44 112.457 458.794C112.457 453.075 117.92 450.685 117.92 441.467C117.92 439.077 117.153 434.47 113.993 434.47L113.99 434.463Z" fill="#FF0000"/>
<path d="M155.548 467.836C150.344 472.958 142.664 470.482 142.834 476.37C142.492 475.345 141.894 474.067 140.613 474.067C138.31 474.067 136.432 477.821 136.007 479.7C134.981 476.882 135.24 473.894 134.726 470.993C133.617 464.932 131.055 459.129 131.055 452.813C131.055 451.531 131.142 450.253 131.566 449.058C131.822 449.825 132.592 451.96 133.614 451.96C134.978 451.96 134.895 447.95 134.895 447.01C134.895 443.339 134.467 439.585 134.467 435.914C134.467 433.779 134.553 430.792 135.831 428.999C135.831 429.852 136.259 431.22 137.367 431.22C139.415 431.22 138.99 427.721 138.99 426.44C138.99 420.807 140.354 416.283 145.22 412.953C144.964 413.806 144.709 414.659 144.709 415.513C144.709 416.196 144.878 417.049 145.734 417.049C148.379 417.049 150.427 409.71 154.44 409.026C153.414 410.391 152.05 412.525 152.05 414.318C152.05 415.257 152.392 415.682 153.331 415.682C155.292 415.682 156.318 414.145 157.426 412.781C157.513 413.209 157.596 413.72 157.596 414.145C157.596 417.557 153.756 420.033 152.05 422.852C149.747 426.606 150.855 429.251 149.319 432.07C148.037 434.373 142.747 438.984 142.747 441.115C142.747 441.712 143.003 443.163 143.856 443.163C144.54 443.163 145.137 442.054 145.392 441.54C145.734 442.904 145.903 444.358 145.903 445.809C145.903 452.295 141.553 454.598 141.553 461.941C141.553 462.794 141.639 463.647 141.722 464.5C143.514 462.963 145.99 462.794 147.609 461.257C149.488 459.464 151.535 457.075 151.705 454.429C151.96 455.368 152.471 456.221 153.497 456.221C155.973 456.221 158.362 452.125 159.042 450.16C159.298 450.844 159.384 451.611 159.384 452.381C159.384 454.429 158.359 456.391 158.359 458.356C158.359 459.123 159.042 459.806 159.809 459.806C160.406 459.806 161.004 459.464 161.432 459.04C160.579 461.772 157.592 465.868 155.545 467.829L155.548 467.836Z" fill="#FF0000"/>


</svg>
