<svg xmlns="http://www.w3.org/2000/svg" width="282" height="280" viewBox="0 0 282 280" fill="none"><style>g circle {
  animation-duration: 7s;  
  animation-name: colorcycle;
  animation-fill-mode: forwards;  
  animation-iteration-count: infinite;
  animation-timing-function: linear;   
}

g.front circle {
  animation-delay: .75s;  
}

@keyframes colorcycle {
  0%, 14.285% {
    fill: black;
  }

  14.285714285714286%, 28.571% {
    fill: #FF0100;
  }

  28.571428571428573%, 42.857% {
    fill: #FF9902;
  }

  42.85714285714286%, 57.142% {
    fill: #FFE500;
  } 

  57.142857142857146%, 71.428% {
    fill: #008C01;
  } 

  71.42857142857143%, 85.714% {
    fill: #0100FF;
  } 

  85.71428571428572%, 99.999% {
    fill: #6F00B9;
  }             
}

g.front {
  animation-duration: 2s;
  animation-name: slideout;
  animation-iteration-count: infinite;
  transform-origin:141px 140px;
  animation-timing-function: cubic-bezier(0.85, 0, 0.45, 0.49) 
}

@keyframes slideout {
  0% {
    transform: translateY(0px) rotateZ(-15deg);
  }

  40%, 49.999% {
    transform: translateY(-280px) rotateZ(30deg);
  }

  50% {
    transform: translateY(0px) rotateZ(-15deg);
  }
  
  90%, 99.999% {
    transform: translateY(280px) rotateZ(-60deg);
  }   
}

g.back {
  animation-duration: 2s;
  animation-name: rotatein;
  animation-iteration-count: infinite;
  transform-origin:141px 140px;
  animation-timing-function: cubic-bezier(0.8, 0, 0.35, 1)
}

@keyframes rotatein {
  0% {
    transform: rotateZ(40deg);
  }

  49%, 49.999% {
    transform: rotateZ(-15deg);
  }

  50% {
    transform: rotateZ(-70deg);
  }
  
  99%, 99.999% {
    transform: rotateZ(-15deg);
  }   
}
</style>

  <g clip-path="url(#circle-mask)"><g class="back">
<circle cx="141" cy="140" r="115" fill="red"/>
<path d="M145.253 106.355C142.893 115.163 136.447 121.108 130.858 119.61C125.269 118.113 122.653 109.761 125.018 100.933C127.378 92.126 133.825 86.1809 139.414 87.6784C145.003 89.176 147.613 97.5478 145.253 106.355Z" fill="white"/>
<path d="M173.585 113.947C171.225 122.754 164.779 128.699 159.19 127.202C153.601 125.704 150.985 117.352 153.35 108.525C155.71 99.7176 162.157 93.7724 167.746 95.27C173.335 96.7676 175.945 105.139 173.585 113.947Z" fill="white"/>
<path d="M37.6045 169.99L42.4268 151.993L48.8928 153.726C55.053 155.376 57.7155 159.473 56.1422 165.345C54.6874 170.774 50.4347 173.427 44.1318 171.739L37.6045 169.99ZM41.7761 168.047L44.6725 168.823C48.5073 169.851 51.5389 168.572 52.6542 164.41C53.694 160.529 52.1461 157.658 47.9442 156.532L45.0681 155.761L41.7761 168.047Z" fill="white"/>
<path d="M61.0063 157.23L64.3516 158.126L63.4679 161.424L60.1227 160.528L61.0063 157.23ZM59.5124 175.86L56.3304 175.007L59.6925 162.46L62.8745 163.312L59.5124 175.86Z" fill="white"/>
<path d="M62.4896 176.658L65.8517 164.11L69.0337 164.963L68.8829 165.526C68.7859 165.888 68.6631 166.264 68.4522 166.725C69.5056 165.65 70.9419 165.022 72.9613 165.563C75.7761 166.317 76.9261 168.716 76.0964 171.812L73.9735 179.735L70.7915 178.882L72.7904 171.422C73.2861 169.572 72.6807 168.16 71.1917 167.761C69.6211 167.34 68.1124 168.401 67.6436 170.151L65.6717 177.51L62.4896 176.658Z" fill="white"/>
<path d="M77.1849 176.888C77.9446 174.053 80.4266 173.684 83.2568 174.054L85.1573 174.305C86.2407 174.423 86.7048 174.159 86.8665 173.556C87.0981 172.691 86.574 171.71 85.2277 171.349C83.7387 170.95 82.5795 171.524 82.1069 172.798L78.8228 171.918C79.7272 169.358 82.3905 168.068 85.6949 168.953C89.5909 169.997 90.5915 172.463 89.6433 176.002L87.6659 183.382L84.7286 182.595L84.8687 182.072C84.9819 181.65 85.125 181.279 85.3144 180.899C84.3126 181.945 82.7485 182.56 80.5455 181.97C78.2964 181.389 76.5222 179.362 77.1849 176.888ZM85.8639 177.705L86.2303 176.338C85.8747 176.523 85.3882 176.543 84.5754 176.476L83.4812 176.399C81.9222 176.261 80.7676 176.491 80.4605 177.637C80.1641 178.743 80.8742 179.601 81.9961 179.902C83.6945 180.335 85.3898 179.475 85.8639 177.705Z" fill="white"/>
<path d="M90.537 184.173L93.8991 171.625L97.0811 172.478L96.9302 173.041C96.8279 173.423 96.6889 173.86 96.4996 174.24C97.4283 173.304 98.8873 172.509 100.764 173.012C102.355 173.439 103.317 174.989 103.484 176.241C104.542 175.231 106.373 174.515 108.229 175.013C110.82 175.707 112.076 178.199 111.257 181.255L109.14 189.157L105.958 188.305L107.951 180.865C108.442 179.035 108.03 177.632 106.643 177.26C105.256 176.888 103.877 177.876 103.37 179.767L101.414 187.066L98.2323 186.213L100.226 178.773C100.716 176.943 100.366 175.557 98.9181 175.169C97.531 174.797 96.1879 175.73 95.6652 177.681L93.7094 184.98L90.5478 184.133L90.537 184.173Z" fill="white"/>
<path d="M113.033 183.52C114.137 179.398 117.551 177.51 121.365 178.532C125.2 179.56 127.207 182.921 126.108 187.023C124.993 191.185 121.601 192.992 117.766 191.965C113.911 190.932 111.918 187.682 113.033 183.52ZM122.865 186.154C123.592 183.439 122.635 181.545 120.697 181.026C118.759 180.507 117.009 181.654 116.276 184.389C115.56 187.063 116.45 188.961 118.429 189.491C120.407 190.021 122.148 188.828 122.865 186.154Z" fill="white"/>
<path d="M126.704 51.9669C128.256 46.1757 133.12 43.6861 138.281 45.0689C142.748 46.2659 145.277 49.6375 144.599 54.0462L141.049 53.0952C141.328 50.6697 140.209 48.6457 137.516 47.9242C134.273 47.0552 131.31 48.8908 130.233 52.9124C129.107 57.115 130.733 60.2662 133.915 61.1189C136.628 61.8458 138.886 60.5975 139.895 58.303L143.301 59.2157C141.737 63.2578 137.943 65.2586 133.027 63.9414C127.602 62.4876 125.066 58.0797 126.704 51.9669Z" fill="white"/>
<path d="M144.027 62.7077C144.787 59.8724 147.269 59.503 150.099 59.8734L151.994 60.1441C153.078 60.262 153.542 59.9984 153.703 59.3952C153.935 58.5305 153.411 57.5496 152.065 57.1888C150.576 56.7899 149.416 57.3629 148.944 58.6371L145.639 57.7517C146.544 55.1923 149.207 53.9016 152.511 54.787C156.407 55.8309 157.408 58.2973 156.46 61.8364L154.482 69.216L151.525 68.4235L151.665 67.9007C151.778 67.4784 151.921 67.1073 152.11 66.727C151.109 67.7733 149.545 68.3887 147.342 67.7984C145.144 67.188 143.37 65.1608 144.027 62.7077ZM152.712 63.5045L153.078 62.1371C152.722 62.322 152.236 62.3425 151.423 62.2756L150.329 62.1979C148.77 62.0603 147.615 62.2898 147.308 63.4359C147.012 64.5419 147.722 65.4002 148.844 65.7009C150.537 66.1545 152.232 65.2941 152.712 63.5045Z" fill="white"/>
<path d="M157.384 69.9722L160.746 57.4247L163.928 58.2773L163.675 59.2224C163.551 59.6849 163.428 60.0615 163.223 60.5021C164.273 59.2749 165.775 58.3196 167.672 58.8279C167.937 58.899 168.136 58.9738 168.324 59.0887L167.51 62.1251C167.322 62.0101 167.048 61.8933 166.619 61.7786C164.661 61.2539 162.969 61.8566 162.236 64.5913L160.566 70.8248L157.384 69.9722Z" fill="white"/>
<path d="M166.27 73.2798L169.514 74.1489C169.156 75.6478 169.898 76.7949 171.611 77.254C173.284 77.7022 174.955 77.094 175.456 75.2239L175.823 73.8566C175.973 73.2936 176.134 72.7762 176.345 72.3155C175.288 73.2393 173.806 73.8766 171.827 73.3464C168.523 72.461 166.73 69.5237 167.792 65.5625C168.837 61.6615 172.241 60.0522 175.015 60.7955C177.259 61.3967 178.139 62.6021 178.543 64.1114C178.58 63.6472 178.646 63.32 178.77 62.8575L178.921 62.2945L182.103 63.1471L178.843 75.3125C177.738 79.4346 174.62 80.7111 170.867 79.7054C167.114 78.6998 165.505 76.1352 166.27 73.2798ZM177.542 68.175C178.129 65.9832 177.183 64.0486 175.306 63.5458C173.368 63.0265 171.602 64.2342 171.014 66.426C170.427 68.6178 171.374 70.5524 173.291 71.0662C175.188 71.5745 176.954 70.3668 177.542 68.175Z" fill="white"/>
<path d="M182.757 70.0895C183.861 65.9673 187.274 64.0802 191.089 65.1023C194.924 66.1298 196.931 69.4909 195.832 73.5929C194.716 77.7553 191.324 79.562 187.49 78.5345C183.655 77.5069 181.636 74.272 182.757 70.0895ZM192.588 72.7239C193.321 69.9892 192.358 68.1149 190.421 67.5957C188.483 67.0764 186.733 68.2238 186 70.9585C185.283 73.6329 186.174 75.531 188.152 76.0612C190.131 76.5913 191.872 75.3983 192.588 72.7239Z" fill="white"/>
<path d="M164.837 186.495L169.659 168.499L182.306 171.887L181.541 174.743L172.301 172.267L171.034 176.992L179.785 179.337L179.02 182.192L170.269 179.847L168.243 187.408L164.837 186.495Z" fill="white"/>
<path d="M180.499 184.011C181.604 179.889 185.017 178.002 188.831 179.024C192.666 180.051 194.673 183.412 193.574 187.514C192.459 191.677 189.067 193.483 185.232 192.456C181.398 191.428 179.384 188.173 180.499 184.011ZM190.331 186.645C191.058 183.931 190.101 182.036 188.163 181.517C186.226 180.998 184.475 182.145 183.742 184.88C183.026 187.554 183.916 189.452 185.895 189.982C187.874 190.513 189.614 189.32 190.331 186.645Z" fill="white"/>
<path d="M194.229 194.371L197.591 181.823L200.773 182.676L200.623 183.239C200.526 183.601 200.403 183.978 200.192 184.438C201.245 183.363 202.682 182.735 204.701 183.276C207.516 184.03 208.666 186.429 207.836 189.525L205.713 197.448L202.531 196.595L204.53 189.135C205.026 187.285 204.42 185.873 202.931 185.474C201.361 185.053 199.852 186.115 199.383 187.864L197.411 195.223L194.229 194.371Z" fill="white"/>
<path d="M211.17 194.707L212.818 188.554L209.922 187.778L210.59 185.285L213.486 186.061L214.699 181.537L217.881 182.389L216.668 186.914L219.81 187.755L219.142 190.249L216 189.407L214.476 195.098C214.125 196.405 214.446 197.331 215.792 197.692C216.098 197.774 216.45 197.846 216.772 197.868L216.136 200.241C215.803 200.259 215.011 200.198 214.195 199.979C211.488 199.232 210.415 197.523 211.17 194.707Z" fill="white"/>
<path d="M218.662 196.284L221.905 197.153C221.588 198.663 222.268 199.879 223.961 200.333C225.388 200.715 226.484 200.298 226.743 199.333C226.969 198.488 226.337 197.909 225.061 197.287L223.591 196.57C221.08 195.337 219.879 193.7 220.439 191.609C221.026 189.417 223.549 188.326 226.69 189.168C230.117 190.086 231.769 192.404 231.145 195.06L227.963 194.207C228.19 192.953 227.487 191.903 226.06 191.52C224.876 191.203 223.855 191.425 223.613 192.33C223.413 193.074 223.8 193.587 225.346 194.346L226.815 195.063C229.195 196.218 230.54 197.807 229.953 199.999C229.312 202.392 226.722 203.573 223.438 202.693C219.807 201.72 218.079 199.274 218.662 196.284Z" fill="white"/>
<path d="M97.2613 130.845L102.083 112.848L109.753 114.903C113.567 115.925 115.997 118.279 114.979 122.08C113.934 125.981 110.531 126.685 106.86 125.701L102.617 124.565L100.688 131.763L97.2613 130.845ZM103.387 121.689L107.63 122.826C109.813 123.411 111.056 122.688 111.476 121.119C111.896 119.551 111.237 118.34 108.993 117.739L104.751 116.602L103.387 121.689Z" fill="white"/>
<path d="M113.588 131.513C114.348 128.678 116.83 128.308 119.66 128.679L121.555 128.95C122.639 129.067 123.103 128.804 123.264 128.201C123.496 127.336 122.972 126.355 121.626 125.994C120.137 125.595 118.977 126.168 118.505 127.443L115.221 126.563C116.125 124.003 118.788 122.712 122.093 123.598C125.989 124.642 126.989 127.108 126.041 130.647L124.064 138.027L121.127 137.24L121.267 136.717C121.374 136.315 121.523 135.924 121.712 135.543C120.711 136.59 119.146 137.205 116.943 136.615C114.7 136.014 112.926 133.986 113.588 131.513ZM122.267 132.33L122.634 130.963C122.278 131.148 121.792 131.168 120.979 131.101L119.885 131.023C118.325 130.886 117.171 131.115 116.864 132.261C116.567 133.367 117.278 134.226 118.399 134.526C120.098 134.96 121.793 134.1 122.267 132.33Z" fill="white"/>
<path d="M126.94 138.797L130.302 126.25L133.484 127.103L133.231 128.048C133.107 128.51 132.984 128.887 132.778 129.327C133.829 128.1 135.331 127.145 137.228 127.653C137.493 127.724 137.692 127.799 137.879 127.914L137.066 130.95C136.878 130.835 136.603 130.719 136.175 130.604C134.217 130.079 132.525 130.682 131.792 133.416L130.122 139.65L126.94 138.797Z" fill="white"/>
<path d="M139.393 137.932L141.041 131.779L138.145 131.003L138.813 128.509L141.71 129.285L142.922 124.761L146.104 125.614L144.892 130.138L148.033 130.98L147.365 133.473L144.224 132.631L142.699 138.322C142.349 139.629 142.669 140.555 144.015 140.916C144.321 140.998 144.673 141.071 144.995 141.092L144.359 143.465C144.027 143.484 143.234 143.422 142.418 143.204C139.731 142.462 138.638 140.747 139.393 137.932Z" fill="white"/>
<path d="M146.522 144.045L149.884 131.497L153.066 132.35L152.916 132.913C152.819 133.275 152.696 133.651 152.485 134.112C153.518 133.031 154.975 132.409 156.994 132.95C159.809 133.704 160.959 136.103 160.129 139.199L158.006 147.122L154.824 146.269L156.823 138.809C157.319 136.959 156.713 135.547 155.224 135.148C153.654 134.727 152.145 135.788 151.676 137.538L149.704 144.897L146.522 144.045Z" fill="white"/>
<path d="M161.941 141.409C163.003 137.448 166.417 135.475 170.109 136.464C174.005 137.508 175.532 140.783 174.438 144.865L174.255 145.549L164.995 143.068C164.482 145.064 165.363 146.916 167.3 147.435C168.687 147.807 170.014 147.344 170.574 146.071L173.817 146.94C172.862 149.443 170.09 150.812 166.643 149.889C162.818 148.907 160.777 145.752 161.941 141.409ZM171.595 142.422C171.987 140.717 171.177 139.25 169.464 138.791C167.75 138.332 166.183 139.205 165.578 140.81L171.595 142.422Z" fill="white"/>
<path d="M175.181 151.724L178.543 139.176L181.725 140.029L181.472 140.974C181.348 141.436 181.225 141.813 181.02 142.254C182.07 141.026 183.572 140.071 185.469 140.579C185.734 140.65 185.933 140.725 186.121 140.84L185.307 143.877C185.119 143.762 184.844 143.645 184.416 143.53C182.458 143.005 180.766 143.608 180.033 146.343L178.363 152.576L175.181 151.724Z" fill="white"/>
<path d="M110.68 153.385L113.923 154.254C113.606 155.764 114.286 156.98 115.979 157.434C117.406 157.817 118.502 157.399 118.761 156.434C118.987 155.589 118.355 155.01 117.079 154.388L115.63 153.677C113.118 152.443 111.917 150.807 112.477 148.716C113.065 146.524 115.587 145.432 118.728 146.274C122.155 147.192 123.808 149.51 123.184 152.166L120.002 151.314C120.228 150.06 119.526 149.009 118.098 148.627C116.915 148.31 115.893 148.532 115.651 149.437C115.452 150.181 115.839 150.694 117.384 151.453L118.833 152.164C121.213 153.319 122.538 154.903 121.945 157.115C121.304 159.507 118.714 160.688 115.43 159.808C111.825 158.821 110.117 156.381 110.68 153.385Z" fill="white"/>
<path d="M123.351 161.413L128.173 143.417L131.355 144.269L129.744 150.281C129.647 150.643 129.524 151.02 129.313 151.481C130.367 150.405 131.803 149.777 133.822 150.318C136.637 151.072 137.787 153.471 136.957 156.568L134.835 164.49L131.653 163.638L133.651 156.178C134.147 154.328 133.542 152.915 132.053 152.516C130.482 152.096 128.973 153.157 128.505 154.906L126.533 162.266L123.351 161.413Z" fill="white"/>
<path d="M142.428 147.495L145.773 148.391L144.889 151.689L141.544 150.793L142.428 147.495ZM140.913 166.119L137.731 165.267L141.093 152.719L144.275 153.572L140.913 166.119Z" fill="white"/>
<path d="M142.485 172.165L147.254 154.37L150.436 155.222L150.285 155.785C150.182 156.167 150.07 156.504 149.854 156.985C151.031 155.856 152.609 155.352 154.628 155.893C157.994 156.795 159.474 160.166 158.407 164.147C157.319 168.209 154.135 170.136 150.912 169.273C148.77 168.699 147.911 167.499 147.461 165.999C147.402 166.543 147.336 166.87 147.239 167.232L145.698 172.983L142.496 172.125L142.485 172.165ZM155.174 163.238C155.837 160.765 155.082 158.687 153.042 158.141C151.145 157.632 149.322 158.889 148.627 161.483C147.953 163.997 148.857 166.092 150.774 166.606C152.732 167.131 154.501 165.751 155.174 163.238Z" fill="white"/>
<path d="M187.647 219.181L192.967 226.662L196.673 205.241L174.964 201.407L180.188 208.755C161.863 218.888 140.661 221.483 120.202 216.001C107.943 212.716 96.5969 206.594 87.2055 198.237L93.929 192.237L71.9122 191.101L70.919 212.839L77.736 206.734C88.7924 216.874 102.326 224.293 116.952 228.212C141.097 234.703 166.121 231.473 187.647 219.181Z" fill="white"/>
<path d="M112.894 58.3097L92.3569 50.2637L96.0624 58.6273C73.737 70.5547 57.2473 91.1364 50.7387 115.427C49.4779 120.132 48.6197 124.967 48.1148 129.789L38.895 129.603L54.2781 145.298L70.0593 130.216L60.993 130.028C61.4379 126.246 62.1491 122.45 63.1405 118.75C68.6578 98.1593 82.4858 80.6576 101.244 70.2957L104.9 78.5168L112.894 58.3097Z" fill="white"/>
<path d="M231.23 161.289C236.907 137.573 232.712 112.354 219.644 91.5253L227.02 86.1094L205.216 82.8747L202.091 104.408L209.338 99.0656C219.963 116.525 223.429 137.453 219.002 157.237L210.366 154.384L220.314 173.882L239.984 164.195L231.23 161.289Z" fill="white"/>
</g><g class="front">
<circle cx="141" cy="140" r="115" fill="#2A00FF"/>
<path d="M145.253 106.355C142.893 115.163 136.447 121.108 130.858 119.61C125.269 118.113 122.653 109.761 125.018 100.933C127.378 92.126 133.825 86.1809 139.414 87.6784C145.003 89.176 147.613 97.5478 145.253 106.355Z" fill="white"/>
<path d="M173.585 113.947C171.225 122.754 164.779 128.699 159.19 127.202C153.601 125.704 150.985 117.352 153.35 108.525C155.71 99.7176 162.157 93.7724 167.746 95.27C173.335 96.7676 175.945 105.139 173.585 113.947Z" fill="white"/>
<path d="M37.6045 169.99L42.4268 151.993L48.8928 153.726C55.053 155.376 57.7155 159.473 56.1422 165.345C54.6874 170.774 50.4347 173.427 44.1318 171.739L37.6045 169.99ZM41.7761 168.047L44.6725 168.823C48.5073 169.851 51.5389 168.572 52.6542 164.41C53.694 160.529 52.1461 157.658 47.9442 156.532L45.0681 155.761L41.7761 168.047Z" fill="white"/>
<path d="M61.0063 157.23L64.3516 158.126L63.4679 161.424L60.1227 160.528L61.0063 157.23ZM59.5124 175.86L56.3304 175.007L59.6925 162.46L62.8745 163.312L59.5124 175.86Z" fill="white"/>
<path d="M62.4896 176.658L65.8517 164.11L69.0337 164.963L68.8829 165.526C68.7859 165.888 68.6631 166.264 68.4522 166.725C69.5056 165.65 70.9419 165.022 72.9613 165.563C75.7761 166.317 76.9261 168.716 76.0964 171.812L73.9735 179.735L70.7915 178.882L72.7904 171.422C73.2861 169.572 72.6807 168.16 71.1917 167.761C69.6211 167.34 68.1124 168.401 67.6436 170.151L65.6717 177.51L62.4896 176.658Z" fill="white"/>
<path d="M77.1849 176.888C77.9446 174.053 80.4266 173.684 83.2568 174.054L85.1573 174.305C86.2407 174.423 86.7048 174.159 86.8665 173.556C87.0981 172.691 86.574 171.71 85.2277 171.349C83.7387 170.95 82.5795 171.524 82.1069 172.798L78.8228 171.918C79.7272 169.358 82.3905 168.068 85.6949 168.953C89.5909 169.997 90.5915 172.463 89.6433 176.002L87.6659 183.382L84.7286 182.595L84.8687 182.072C84.9819 181.65 85.125 181.279 85.3144 180.899C84.3126 181.945 82.7485 182.56 80.5455 181.97C78.2964 181.389 76.5222 179.362 77.1849 176.888ZM85.8639 177.705L86.2303 176.338C85.8747 176.523 85.3882 176.543 84.5754 176.476L83.4812 176.399C81.9222 176.261 80.7676 176.491 80.4605 177.637C80.1641 178.743 80.8742 179.601 81.9961 179.902C83.6945 180.335 85.3898 179.475 85.8639 177.705Z" fill="white"/>
<path d="M90.537 184.173L93.8991 171.625L97.0811 172.478L96.9302 173.041C96.8279 173.423 96.6889 173.86 96.4996 174.24C97.4283 173.304 98.8873 172.509 100.764 173.012C102.355 173.439 103.317 174.989 103.484 176.241C104.542 175.231 106.373 174.515 108.229 175.013C110.82 175.707 112.076 178.199 111.257 181.255L109.14 189.157L105.958 188.305L107.951 180.865C108.442 179.035 108.03 177.632 106.643 177.26C105.256 176.888 103.877 177.876 103.37 179.767L101.414 187.066L98.2323 186.213L100.226 178.773C100.716 176.943 100.366 175.557 98.9181 175.169C97.531 174.797 96.1879 175.73 95.6652 177.681L93.7094 184.98L90.5478 184.133L90.537 184.173Z" fill="white"/>
<path d="M113.033 183.52C114.137 179.398 117.551 177.51 121.365 178.532C125.2 179.56 127.207 182.921 126.108 187.023C124.993 191.185 121.601 192.992 117.766 191.965C113.911 190.932 111.918 187.682 113.033 183.52ZM122.865 186.154C123.592 183.439 122.635 181.545 120.697 181.026C118.759 180.507 117.009 181.654 116.276 184.389C115.56 187.063 116.45 188.961 118.429 189.491C120.407 190.021 122.148 188.828 122.865 186.154Z" fill="white"/>
<path d="M126.704 51.9669C128.256 46.1757 133.12 43.6861 138.281 45.0689C142.748 46.2659 145.277 49.6375 144.599 54.0462L141.049 53.0952C141.328 50.6697 140.209 48.6457 137.516 47.9242C134.273 47.0552 131.31 48.8908 130.233 52.9124C129.107 57.115 130.733 60.2662 133.915 61.1189C136.628 61.8458 138.886 60.5975 139.895 58.303L143.301 59.2157C141.737 63.2578 137.943 65.2586 133.027 63.9414C127.602 62.4876 125.066 58.0797 126.704 51.9669Z" fill="white"/>
<path d="M144.027 62.7077C144.787 59.8724 147.269 59.503 150.099 59.8734L151.994 60.1441C153.078 60.262 153.542 59.9984 153.703 59.3952C153.935 58.5305 153.411 57.5496 152.065 57.1888C150.576 56.7899 149.416 57.3629 148.944 58.6371L145.639 57.7517C146.544 55.1923 149.207 53.9016 152.511 54.787C156.407 55.8309 157.408 58.2973 156.46 61.8364L154.482 69.216L151.525 68.4235L151.665 67.9007C151.778 67.4784 151.921 67.1073 152.11 66.727C151.109 67.7733 149.545 68.3887 147.342 67.7984C145.144 67.188 143.37 65.1608 144.027 62.7077ZM152.712 63.5045L153.078 62.1371C152.722 62.322 152.236 62.3425 151.423 62.2756L150.329 62.1979C148.77 62.0603 147.615 62.2898 147.308 63.4359C147.012 64.5419 147.722 65.4002 148.844 65.7009C150.537 66.1545 152.232 65.2941 152.712 63.5045Z" fill="white"/>
<path d="M157.384 69.9722L160.746 57.4247L163.928 58.2773L163.675 59.2224C163.551 59.6849 163.428 60.0615 163.223 60.5021C164.273 59.2749 165.775 58.3196 167.672 58.8279C167.937 58.899 168.136 58.9738 168.324 59.0887L167.51 62.1251C167.322 62.0101 167.048 61.8933 166.619 61.7786C164.661 61.2539 162.969 61.8566 162.236 64.5913L160.566 70.8248L157.384 69.9722Z" fill="white"/>
<path d="M166.27 73.2798L169.514 74.1489C169.156 75.6478 169.898 76.7949 171.611 77.254C173.284 77.7022 174.955 77.094 175.456 75.2239L175.823 73.8566C175.973 73.2936 176.134 72.7762 176.345 72.3155C175.288 73.2393 173.806 73.8766 171.827 73.3464C168.523 72.461 166.73 69.5237 167.792 65.5625C168.837 61.6615 172.241 60.0522 175.015 60.7955C177.259 61.3967 178.139 62.6021 178.543 64.1114C178.58 63.6472 178.646 63.32 178.77 62.8575L178.921 62.2945L182.103 63.1471L178.843 75.3125C177.738 79.4346 174.62 80.7111 170.867 79.7054C167.114 78.6998 165.505 76.1352 166.27 73.2798ZM177.542 68.175C178.129 65.9832 177.183 64.0486 175.306 63.5458C173.368 63.0265 171.602 64.2342 171.014 66.426C170.427 68.6178 171.374 70.5524 173.291 71.0662C175.188 71.5745 176.954 70.3668 177.542 68.175Z" fill="white"/>
<path d="M182.757 70.0895C183.861 65.9673 187.274 64.0802 191.089 65.1023C194.924 66.1298 196.931 69.4909 195.832 73.5929C194.716 77.7553 191.324 79.562 187.49 78.5345C183.655 77.5069 181.636 74.272 182.757 70.0895ZM192.588 72.7239C193.321 69.9892 192.358 68.1149 190.421 67.5957C188.483 67.0764 186.733 68.2238 186 70.9585C185.283 73.6329 186.174 75.531 188.152 76.0612C190.131 76.5913 191.872 75.3983 192.588 72.7239Z" fill="white"/>
<path d="M164.837 186.495L169.659 168.499L182.306 171.887L181.541 174.743L172.301 172.267L171.034 176.992L179.785 179.337L179.02 182.192L170.269 179.847L168.243 187.408L164.837 186.495Z" fill="white"/>
<path d="M180.499 184.011C181.604 179.889 185.017 178.002 188.831 179.024C192.666 180.051 194.673 183.412 193.574 187.514C192.459 191.677 189.067 193.483 185.232 192.456C181.398 191.428 179.384 188.173 180.499 184.011ZM190.331 186.645C191.058 183.931 190.101 182.036 188.163 181.517C186.226 180.998 184.475 182.145 183.742 184.88C183.026 187.554 183.916 189.452 185.895 189.982C187.874 190.513 189.614 189.32 190.331 186.645Z" fill="white"/>
<path d="M194.229 194.371L197.591 181.823L200.773 182.676L200.623 183.239C200.526 183.601 200.403 183.978 200.192 184.438C201.245 183.363 202.682 182.735 204.701 183.276C207.516 184.03 208.666 186.429 207.836 189.525L205.713 197.448L202.531 196.595L204.53 189.135C205.026 187.285 204.42 185.873 202.931 185.474C201.361 185.053 199.852 186.115 199.383 187.864L197.411 195.223L194.229 194.371Z" fill="white"/>
<path d="M211.17 194.707L212.818 188.554L209.922 187.778L210.59 185.285L213.486 186.061L214.699 181.537L217.881 182.389L216.668 186.914L219.81 187.755L219.142 190.249L216 189.407L214.476 195.098C214.125 196.405 214.446 197.331 215.792 197.692C216.098 197.774 216.45 197.846 216.772 197.868L216.136 200.241C215.803 200.259 215.011 200.198 214.195 199.979C211.488 199.232 210.415 197.523 211.17 194.707Z" fill="white"/>
<path d="M218.662 196.284L221.905 197.153C221.588 198.663 222.268 199.879 223.961 200.333C225.388 200.715 226.484 200.298 226.743 199.333C226.969 198.488 226.337 197.909 225.061 197.287L223.591 196.57C221.08 195.337 219.879 193.7 220.439 191.609C221.026 189.417 223.549 188.326 226.69 189.168C230.117 190.086 231.769 192.404 231.145 195.06L227.963 194.207C228.19 192.953 227.487 191.903 226.06 191.52C224.876 191.203 223.855 191.425 223.613 192.33C223.413 193.074 223.8 193.587 225.346 194.346L226.815 195.063C229.195 196.218 230.54 197.807 229.953 199.999C229.312 202.392 226.722 203.573 223.438 202.693C219.807 201.72 218.079 199.274 218.662 196.284Z" fill="white"/>
<path d="M97.2613 130.845L102.083 112.848L109.753 114.903C113.567 115.925 115.997 118.279 114.979 122.08C113.934 125.981 110.531 126.685 106.86 125.701L102.617 124.565L100.688 131.763L97.2613 130.845ZM103.387 121.689L107.63 122.826C109.813 123.411 111.056 122.688 111.476 121.119C111.896 119.551 111.237 118.34 108.993 117.739L104.751 116.602L103.387 121.689Z" fill="white"/>
<path d="M113.588 131.513C114.348 128.678 116.83 128.308 119.66 128.679L121.555 128.95C122.639 129.067 123.103 128.804 123.264 128.201C123.496 127.336 122.972 126.355 121.626 125.994C120.137 125.595 118.977 126.168 118.505 127.443L115.221 126.563C116.125 124.003 118.788 122.712 122.093 123.598C125.989 124.642 126.989 127.108 126.041 130.647L124.064 138.027L121.127 137.24L121.267 136.717C121.374 136.315 121.523 135.924 121.712 135.543C120.711 136.59 119.146 137.205 116.943 136.615C114.7 136.014 112.926 133.986 113.588 131.513ZM122.267 132.33L122.634 130.963C122.278 131.148 121.792 131.168 120.979 131.101L119.885 131.023C118.325 130.886 117.171 131.115 116.864 132.261C116.567 133.367 117.278 134.226 118.399 134.526C120.098 134.96 121.793 134.1 122.267 132.33Z" fill="white"/>
<path d="M126.94 138.797L130.302 126.25L133.484 127.103L133.231 128.048C133.107 128.51 132.984 128.887 132.778 129.327C133.829 128.1 135.331 127.145 137.228 127.653C137.493 127.724 137.692 127.799 137.879 127.914L137.066 130.95C136.878 130.835 136.603 130.719 136.175 130.604C134.217 130.079 132.525 130.682 131.792 133.416L130.122 139.65L126.94 138.797Z" fill="white"/>
<path d="M139.393 137.932L141.041 131.779L138.145 131.003L138.813 128.509L141.71 129.285L142.922 124.761L146.104 125.614L144.892 130.138L148.033 130.98L147.365 133.473L144.224 132.631L142.699 138.322C142.349 139.629 142.669 140.555 144.015 140.916C144.321 140.998 144.673 141.071 144.995 141.092L144.359 143.465C144.027 143.484 143.234 143.422 142.418 143.204C139.731 142.462 138.638 140.747 139.393 137.932Z" fill="white"/>
<path d="M146.522 144.045L149.884 131.497L153.066 132.35L152.916 132.913C152.819 133.275 152.696 133.651 152.485 134.112C153.518 133.031 154.975 132.409 156.994 132.95C159.809 133.704 160.959 136.103 160.129 139.199L158.006 147.122L154.824 146.269L156.823 138.809C157.319 136.959 156.713 135.547 155.224 135.148C153.654 134.727 152.145 135.788 151.676 137.538L149.704 144.897L146.522 144.045Z" fill="white"/>
<path d="M161.941 141.409C163.003 137.448 166.417 135.475 170.109 136.464C174.005 137.508 175.532 140.783 174.438 144.865L174.255 145.549L164.995 143.068C164.482 145.064 165.363 146.916 167.3 147.435C168.687 147.807 170.014 147.344 170.574 146.071L173.817 146.94C172.862 149.443 170.09 150.812 166.643 149.889C162.818 148.907 160.777 145.752 161.941 141.409ZM171.595 142.422C171.987 140.717 171.177 139.25 169.464 138.791C167.75 138.332 166.183 139.205 165.578 140.81L171.595 142.422Z" fill="white"/>
<path d="M175.181 151.724L178.543 139.176L181.725 140.029L181.472 140.974C181.348 141.436 181.225 141.813 181.02 142.254C182.07 141.026 183.572 140.071 185.469 140.579C185.734 140.65 185.933 140.725 186.121 140.84L185.307 143.877C185.119 143.762 184.844 143.645 184.416 143.53C182.458 143.005 180.766 143.608 180.033 146.343L178.363 152.576L175.181 151.724Z" fill="white"/>
<path d="M110.68 153.385L113.923 154.254C113.606 155.764 114.286 156.98 115.979 157.434C117.406 157.817 118.502 157.399 118.761 156.434C118.987 155.589 118.355 155.01 117.079 154.388L115.63 153.677C113.118 152.443 111.917 150.807 112.477 148.716C113.065 146.524 115.587 145.432 118.728 146.274C122.155 147.192 123.808 149.51 123.184 152.166L120.002 151.314C120.228 150.06 119.526 149.009 118.098 148.627C116.915 148.31 115.893 148.532 115.651 149.437C115.452 150.181 115.839 150.694 117.384 151.453L118.833 152.164C121.213 153.319 122.538 154.903 121.945 157.115C121.304 159.507 118.714 160.688 115.43 159.808C111.825 158.821 110.117 156.381 110.68 153.385Z" fill="white"/>
<path d="M123.351 161.413L128.173 143.417L131.355 144.269L129.744 150.281C129.647 150.643 129.524 151.02 129.313 151.481C130.367 150.405 131.803 149.777 133.822 150.318C136.637 151.072 137.787 153.471 136.957 156.568L134.835 164.49L131.653 163.638L133.651 156.178C134.147 154.328 133.542 152.915 132.053 152.516C130.482 152.096 128.973 153.157 128.505 154.906L126.533 162.266L123.351 161.413Z" fill="white"/>
<path d="M142.428 147.495L145.773 148.391L144.889 151.689L141.544 150.793L142.428 147.495ZM140.913 166.119L137.731 165.267L141.093 152.719L144.275 153.572L140.913 166.119Z" fill="white"/>
<path d="M142.485 172.165L147.254 154.37L150.436 155.222L150.285 155.785C150.182 156.167 150.07 156.504 149.854 156.985C151.031 155.856 152.609 155.352 154.628 155.893C157.994 156.795 159.474 160.166 158.407 164.147C157.319 168.209 154.135 170.136 150.912 169.273C148.77 168.699 147.911 167.499 147.461 165.999C147.402 166.543 147.336 166.87 147.239 167.232L145.698 172.983L142.496 172.125L142.485 172.165ZM155.174 163.238C155.837 160.765 155.082 158.687 153.042 158.141C151.145 157.632 149.322 158.889 148.627 161.483C147.953 163.997 148.857 166.092 150.774 166.606C152.732 167.131 154.501 165.751 155.174 163.238Z" fill="white"/>
<path d="M187.647 219.181L192.967 226.662L196.673 205.241L174.964 201.407L180.188 208.755C161.863 218.888 140.661 221.483 120.202 216.001C107.943 212.716 96.5969 206.594 87.2055 198.237L93.929 192.237L71.9122 191.101L70.919 212.839L77.736 206.734C88.7924 216.874 102.326 224.293 116.952 228.212C141.097 234.703 166.121 231.473 187.647 219.181Z" fill="white"/>
<path d="M112.894 58.3097L92.3569 50.2637L96.0624 58.6273C73.737 70.5547 57.2473 91.1364 50.7387 115.427C49.4779 120.132 48.6197 124.967 48.1148 129.789L38.895 129.603L54.2781 145.298L70.0593 130.216L60.993 130.028C61.4379 126.246 62.1491 122.45 63.1405 118.75C68.6578 98.1593 82.4858 80.6576 101.244 70.2957L104.9 78.5168L112.894 58.3097Z" fill="white"/>
<path d="M231.23 161.289C236.907 137.573 232.712 112.354 219.644 91.5253L227.02 86.1094L205.216 82.8747L202.091 104.408L209.338 99.0656C219.963 116.525 223.429 137.453 219.002 157.237L210.366 154.384L220.314 173.882L239.984 164.195L231.23 161.289Z" fill="white"/>
</g></g><defs xmlns="http://www.w3.org/2000/svg">
    <clipPath id="circle-mask">
      <circle cx="141" cy="140" r="115"/>
    </clipPath>
  </defs>

</svg>