<svg width="209" height="209" viewBox="0 0 209 209" fill="none" xmlns="http://www.w3.org/2000/svg">
<g clip-path="url(#clip0)">
<path d="M189.027 123.604C178.315 170.447 131.662 199.734 84.8194 189.022C37.9752 178.315 8.68397 131.656 19.3958 84.813C30.1065 37.9753 76.7658 8.68403 123.604 19.3947C170.447 30.1066 199.738 76.7658 189.027 123.604Z" fill="#FFE600"/>
<path d="M52.7847 139.172L55.9374 139.893L52.0662 156.822L48.9134 156.101L52.7847 139.172Z" fill="black"/>
<path d="M58.8162 140.551L62.0585 141.293L63.7635 154.143L66.3817 142.281L69.3552 142.961L65.484 159.89L62.2627 159.154L60.5414 146.277L57.9184 158.16L54.9449 157.48L58.8162 140.551Z" fill="black"/>
<path d="M73.9998 146.958L70.3779 146.13L71.0156 143.341L81.4123 145.719L80.7745 148.507L77.1526 147.679L73.9203 161.814L70.7676 161.093L73.9998 146.958Z" fill="black"/>
<path d="M83.0784 146.1L91.7669 148.086L91.1231 150.902L85.5662 149.631L84.6705 153.548L89.8477 154.732L89.2352 157.41L84.058 156.227L82.9922 160.887L88.6862 162.189L88.0327 165.047L79.2071 163.028L83.0784 146.1Z" fill="black"/>
<path d="M94.2236 148.648L99.8701 149.939C103.271 150.717 104.396 152.322 103.675 155.475C103.171 157.679 102.044 158.775 100.438 158.641C102.619 159.777 102.293 160.984 101.862 163.183L101.437 165.454C101.227 166.566 101.231 167.399 101.715 168.17L97.9771 167.315C97.9156 166.541 98.0687 165.677 98.29 164.613L98.6541 162.826C98.6903 162.668 98.7216 162.531 98.7566 162.378C99.2605 160.174 98.4211 159.6 96.1699 159.085L95.0891 158.838L93.3904 166.266L90.3536 165.572L94.2236 148.648ZM97.4473 156.919C99.2715 157.336 100.022 156.842 100.454 154.955C100.866 153.152 100.188 152.503 98.2743 152.065L96.7191 151.71L95.6232 156.502L97.4473 156.919Z" fill="black"/>
<path d="M107.209 151.618L110.451 152.359L112.156 165.209L114.775 153.348L117.748 154.028L113.877 170.957L110.655 170.22L108.934 157.344L106.311 169.227L103.338 168.547L107.209 151.618Z" fill="black"/>
<path d="M120.627 154.686L129.315 156.673L128.671 159.488L123.115 158.217L122.219 162.135L127.396 163.319L126.784 165.997L121.606 164.813L120.541 169.474L126.235 170.776L125.581 173.633L116.755 171.615L120.627 154.686Z" fill="black"/>
<path d="M133.544 160.574L129.916 159.745L130.554 156.956L140.951 159.334L140.313 162.122L136.691 161.294L133.459 175.429L130.306 174.708L133.544 160.574Z" fill="black"/>
<path d="M58.0172 86.5714C57.917 86.5485 57.8135 86.4915 57.708 86.3952C57.2706 85.979 57.5786 85.5779 57.9991 85.0249L58.1469 85.1308C58.1481 85.1256 58.1534 85.1268 58.1546 85.1215L58.008 85.0103C58.7786 83.9938 62.7284 79.6765 66.547 78.6745C70.6775 77.5941 75.6432 79.6062 75.6883 79.6276C75.8924 79.7297 76.3695 79.972 76.2842 80.4906C76.2013 80.9987 75.7069 81.0743 75.5185 81.0978C75.283 81.1327 75.0142 81.0712 74.1929 80.8779C72.6149 80.5004 69.327 79.7152 67.0912 80.4189C63.935 81.4115 61.9918 83.2861 60.4333 84.7882C59.9211 85.2814 59.4372 85.7477 58.9584 86.1431C58.6707 86.3824 58.3493 86.6473 58.0172 86.5714ZM58.4331 85.335L58.5289 85.4013L58.4436 85.3374C58.4383 85.3362 58.4383 85.3362 58.4331 85.335Z" fill="black"/>
<path d="M88.271 79.4813C88.1339 79.4499 88.0036 79.3647 87.8902 79.2056C87.4687 78.5988 88.1216 78.1212 88.8765 77.5615C91.5471 75.5869 92.0801 75.3426 93.6637 74.6285C93.9796 74.4843 94.3449 74.3182 94.779 74.1179C98.6195 72.3165 99.8885 74.0214 100.814 75.2649L100.97 75.4782C101.397 76.0363 100.921 76.4212 100.9 76.4386C100.623 76.6581 100.191 76.5815 99.9648 76.3079C99.3959 75.6175 99.0324 75.2903 98.8684 75.1585C98.5123 74.8718 97.8428 74.3303 94.8132 75.8123C92.6709 76.8591 91.7973 77.4527 90.5897 78.2695C90.2092 78.5265 89.8027 78.7997 89.3198 79.1164C89.0412 79.2913 88.6295 79.5633 88.271 79.4813Z" fill="black"/>
<path d="M117.528 81.1673C117.39 81.1359 117.256 81.0442 117.149 80.8587C116.831 80.3089 117.276 80.0336 117.839 79.6851C119.306 78.7778 122.132 77.3104 124.616 77.6342C125.898 77.7999 127.217 78.2902 128.49 78.7644C129.927 79.2982 131.287 79.8034 132.515 79.8456C134.955 79.921 136.507 79.4436 138.673 77.9528C138.929 77.7784 139.245 77.5621 139.618 77.7527C139.831 77.8626 139.969 78.0828 139.977 78.3175C139.985 78.5246 139.992 78.8092 139.009 79.3722C136.752 80.6759 135.336 81.4116 132.556 81.4139C130.697 81.4159 128.93 80.7457 127.368 80.1554C126.275 79.7445 125.249 79.3545 124.443 79.3091C122.417 79.1952 121.131 79.6003 119.342 80.4393C118.944 80.6257 118.527 80.8467 118.269 80.9818C118.099 81.0705 117.796 81.2288 117.528 81.1673Z" fill="black"/>
<path d="M158.649 95.8413C158.306 95.7629 158.164 95.3643 158.093 95.165C158.007 94.9122 157.857 94.5007 157.708 94.1337C157.028 92.4747 156.426 91.4438 155.038 90.4052C154.502 90.0054 153.603 89.7388 152.648 89.4537C151.25 89.0398 149.661 88.5654 148.402 87.4953C146.536 85.9035 146.034 84.5072 145.302 82.1762C144.98 81.1371 145.17 80.9365 145.315 80.7866C145.482 80.614 145.735 80.5498 145.959 80.6122C146.361 80.7261 146.447 81.1009 146.506 81.3752C147.057 83.7926 147.765 84.9918 149.424 86.3031C150.237 86.944 151.42 87.3033 152.68 87.6858C153.817 88.029 154.994 88.387 155.96 88.9907C157.84 90.1585 158.849 92.9522 159.286 94.5112C159.45 95.1035 159.594 95.6136 158.989 95.8082C158.862 95.8567 158.749 95.8642 158.649 95.8413Z" fill="black"/>
<path d="M73.2969 114.953C73.1071 114.91 72.9354 114.787 72.8385 114.604C71.9788 113.026 71.4848 110.844 71.606 109.174C71.7314 107.461 72.4905 105.937 73.693 104.997C74.2471 104.563 74.863 104.271 75.4543 103.99C75.8091 103.822 76.1444 103.665 76.4582 103.482C78.1997 102.465 79.3644 100.502 79.4208 98.4839C79.4314 98.098 79.7571 97.7896 80.143 97.8002C80.529 97.8108 80.8373 98.1365 80.8267 98.5224C80.7562 101.014 79.32 103.437 77.1688 104.693C76.8032 104.909 76.4237 105.088 76.0572 105.26C75.51 105.517 74.9941 105.76 74.5614 106.099C73.682 106.791 73.101 107.973 73.0091 109.273C72.9102 110.676 73.3489 112.591 74.0739 113.932C74.2619 114.275 74.1314 114.7 73.7953 114.884C73.6305 114.974 73.4603 114.99 73.2969 114.953Z" fill="black"/>
<path d="M118.994 140.304C116.38 139.706 113.608 138.557 110.649 136.843C105.538 133.887 104.036 128.595 103.175 123.311C103.113 122.925 103.372 122.568 103.753 122.506C104.138 122.444 104.495 122.703 104.558 123.084C105.365 128.023 106.744 132.959 111.35 135.621C117.445 139.146 122.635 140.177 127.224 138.769C131.74 137.383 135.4 134.186 138.479 131.301C141.099 128.843 143.653 126.215 146.121 123.673C146.882 122.892 147.644 122.107 148.41 121.328C149.351 120.367 150.328 119.37 151.141 118.291C153.134 115.64 154.255 112.412 155.092 109.602C155.336 108.776 155.534 107.911 155.725 107.073C156.232 104.859 156.756 102.565 158.25 100.571C158.481 100.263 158.726 99.9698 158.977 99.6722C159.166 99.4493 159.351 99.2251 159.53 98.9998C161.73 96.1741 162.675 92.9617 163.414 89.0031C163.822 86.8052 164.657 84.6105 165.46 82.4807C166.062 80.8929 166.687 79.2496 167.11 77.6431C167.435 76.4138 167.713 75.129 167.22 74.1064C166.787 73.2086 165.719 72.565 164.364 72.3772C162.692 72.1446 160.981 72.225 159.171 72.3048C157.563 72.3753 155.903 72.4507 154.265 72.287C147.744 71.6445 141.018 69.13 134.282 64.8157C133.324 64.2027 132.189 63.2941 130.989 62.3317C127.125 59.2347 122.319 55.3839 118.77 57.1965C117.407 57.8944 116.606 59.4088 115.836 61.0302C113.954 65.0106 112.143 68.9069 110.649 72.7706C108.842 77.4448 107.49 81.463 106.393 85.4118C106.291 85.7878 105.912 86.0119 105.527 85.9016C105.151 85.799 104.934 85.4111 105.037 85.0351C106.145 81.0388 107.51 76.9849 109.333 72.2644C110.843 68.3545 112.666 64.433 114.564 60.4287C115.403 58.6511 116.372 56.8421 118.13 55.946C122.489 53.7196 127.689 57.8877 131.867 61.2342C133.039 62.1736 134.14 63.0579 135.04 63.6354C141.586 67.8341 148.102 70.2728 154.401 70.8922C155.937 71.0436 157.55 70.9744 159.109 70.9036C160.902 70.8254 162.757 70.7447 164.554 70.9892C166.372 71.2385 167.845 72.1744 168.48 73.4959C169.185 74.9497 168.839 76.5849 168.463 78.008C168.021 79.6766 167.382 81.3557 166.766 82.9792C165.983 85.0469 165.172 87.186 164.786 89.2614C164.012 93.4228 163.009 96.8161 160.631 99.8619C160.442 100.107 160.243 100.345 160.041 100.576C159.811 100.851 159.578 101.119 159.369 101.404C158.057 103.162 157.588 105.213 157.087 107.379C156.89 108.238 156.688 109.124 156.428 109.991C155.553 112.92 154.377 116.296 152.254 119.122C151.386 120.277 150.379 121.307 149.402 122.304C148.636 123.083 147.88 123.864 147.119 124.644C144.639 127.195 142.071 129.837 139.428 132.317C136.002 135.534 132.205 138.698 127.628 140.104C124.945 140.944 122.079 141.01 118.994 140.304Z" fill="black"/>
<path d="M127.839 127.248C127.301 127.125 126.745 126.887 126.194 126.533C125.845 126.309 125.524 126.064 125.206 125.83C124.676 125.432 124.179 125.057 123.628 124.82C122.789 124.462 121.828 124.42 120.812 124.376C120.57 124.365 120.322 124.358 120.082 124.342C118.899 124.272 117.194 124.037 116.087 122.841C115.825 122.553 115.837 122.112 116.126 121.845C116.413 121.584 116.858 121.602 117.121 121.884C117.703 122.517 118.67 122.849 120.169 122.942C120.404 122.957 120.635 122.965 120.871 122.975C121.97 123.021 123.109 123.065 124.185 123.527C124.893 123.828 125.484 124.274 126.051 124.708C126.358 124.94 126.646 125.161 126.952 125.353C127.377 125.628 128.453 126.212 129.299 125.812C129.652 125.649 130.069 125.794 130.237 126.149C130.402 126.497 130.25 126.917 129.901 127.087C129.293 127.364 128.582 127.418 127.839 127.248Z" fill="black"/>
<path d="M130.756 110.755C130.424 110.68 130.095 110.565 129.778 110.421C129.427 110.257 129.273 109.839 129.437 109.489C129.6 109.138 130.018 108.983 130.369 109.147C131.357 109.606 132.495 109.578 133.41 109.071C134.281 108.588 134.829 107.765 134.953 106.739C135.097 105.551 135.106 104.322 135.118 103.132C135.13 101.381 135.143 99.5757 135.579 97.7892C136.452 94.1939 138.004 91.5032 140.328 89.5658C140.775 89.1908 141.382 88.7194 142.111 88.3924C142.755 88.1013 143.414 87.9581 144.057 87.8166C144.437 87.7315 144.809 87.972 144.894 88.352C144.979 88.7321 144.739 89.1043 144.359 89.1894C143.762 89.3247 143.195 89.4503 142.683 89.6771C142.237 89.8803 141.786 90.1767 141.224 90.6472C139.14 92.3843 137.737 94.8318 136.94 98.1225C136.545 99.7521 136.535 101.397 136.519 103.141C136.51 104.371 136.501 105.645 136.345 106.913C136.167 108.37 135.34 109.607 134.088 110.303C133.084 110.861 131.889 111.015 130.756 110.755Z" fill="black"/>
<path d="M136.63 110.274C136.599 110.266 136.562 110.258 136.53 110.251C135.694 110.026 134.951 109.44 134.544 108.676C134.361 108.334 134.491 107.909 134.833 107.727C135.174 107.544 135.604 107.676 135.782 108.016C136.007 108.439 136.42 108.767 136.886 108.89C137.35 109.018 137.869 108.931 138.277 108.675C138.608 108.468 139.04 108.567 139.247 108.897C139.455 109.227 139.356 109.66 139.026 109.867C138.33 110.313 137.437 110.458 136.63 110.274Z" fill="black"/>
<path d="M86.3322 137.185C82.4835 136.305 79.1033 134.322 76.6972 132.568C73.3444 130.126 70.8973 126.926 68.5271 123.826C68.0447 123.194 67.5622 122.563 67.0693 121.928C65.8761 120.402 64.5443 118.899 63.258 117.44C61.4159 115.354 59.5081 113.192 57.9161 110.887C54.2227 105.543 52.3611 99.7578 51.68 91.5521C51.2381 86.2306 50.1828 82.1113 48.151 77.7743C47.4916 76.3641 46.9892 74.485 46.7666 72.62C46.1027 66.9592 49.6581 61.8194 55.0334 60.6574C58.2076 59.9742 61.4297 60.2949 64.548 60.6085C66.1321 60.7655 67.7648 60.928 69.3462 60.9512C74.5549 61.0272 78.6916 60.1868 81.9836 58.382C82.5404 58.0822 83.1027 57.7337 83.6457 57.3973C85.5817 56.209 87.5891 54.976 90.0461 55.0274C93.1108 55.0902 95.6909 56.4958 97.5088 59.0751C99.1837 61.4554 100.49 64.0897 101.788 66.8055C102.084 67.4279 102.402 68.0499 102.725 68.6784C103.682 70.5562 104.675 72.4975 105.206 74.5663C105.621 76.1979 105.488 77.8707 105.362 79.4895C105.274 80.5789 105.195 81.6038 105.262 82.6179C105.358 83.949 106.069 84.9881 106.827 86.088C107.209 86.647 107.609 87.2267 107.945 87.8694C110.19 92.1719 109.458 97.0698 108.596 101.327C108.456 102.011 108.311 102.694 108.161 103.375C107.837 104.888 107.496 106.452 107.269 108.003C107.098 109.162 107.066 110.298 107.034 111.506C107.011 112.405 106.981 113.336 106.891 114.264C106.672 116.555 105.925 118.708 105.205 120.79C105.07 121.187 104.929 121.582 104.8 121.979C104.401 123.164 104.267 124.404 104.126 125.726C103.941 127.431 103.754 129.197 102.944 130.848C100.574 135.676 95.0871 137.523 90.7442 137.639C89.2258 137.68 87.7504 137.509 86.3322 137.185ZM69.3366 61.6481L69.3258 62.3502C67.6841 62.3243 66.0185 62.1598 64.4081 61.9968C61.3976 61.6967 58.2899 61.3855 55.3312 62.0237C50.6678 63.0322 47.5846 67.5144 48.1644 72.4514C48.3644 74.1726 48.8255 75.8925 49.4259 77.1726C51.5318 81.6708 52.6255 85.9376 53.0827 91.4346C53.7402 99.3797 55.5333 104.955 59.0754 110.087C60.6215 112.326 62.4985 114.453 64.3138 116.51C65.6135 117.984 66.9586 119.501 68.1774 121.061C68.6757 121.697 69.1622 122.335 69.6499 122.968C72.062 126.127 74.3432 129.106 77.5296 131.427C80.6493 133.7 85.4695 136.372 90.7171 136.229C94.6469 136.124 99.598 134.488 101.689 130.222C102.393 128.791 102.557 127.225 102.736 125.569C102.88 124.237 103.029 122.856 103.472 121.526C103.608 121.124 103.744 120.723 103.885 120.328C104.608 118.23 105.294 116.251 105.497 114.128C105.581 113.248 105.606 112.339 105.633 111.468C105.668 110.272 105.701 109.037 105.884 107.798C106.121 106.204 106.462 104.618 106.797 103.08C106.941 102.403 107.09 101.726 107.227 101.053C108.041 97.0341 108.741 92.4176 106.708 88.5241C106.411 87.9567 106.058 87.4378 105.678 86.8905C104.849 85.6858 103.992 84.4357 103.869 82.7208C103.792 81.5993 103.878 80.4706 103.967 79.3812C104.094 77.807 104.211 76.3247 103.85 74.9164C103.362 73.0016 102.408 71.1303 101.479 69.3202C101.154 68.6799 100.828 68.045 100.528 67.416C99.2062 64.6561 97.9836 62.1907 96.3681 59.8906C94.8189 57.6889 92.6235 56.4934 90.0234 56.4369C87.9811 56.3915 86.2328 57.4619 84.3862 58.5986C83.8251 58.9418 83.2445 59.2973 82.6606 59.6187C79.1478 61.5394 74.7879 62.4342 69.3299 62.3567L69.3366 61.6481Z" fill="black"/>
<path d="M139.459 83.0814C139.221 83.0271 139.023 82.854 138.945 82.6089C138.83 82.2386 139.038 81.8422 139.403 81.7259C141.305 81.1234 142.984 78.2452 143.296 76.0309C143.351 75.6441 143.705 75.3811 144.092 75.4363C144.468 75.489 144.742 75.8456 144.687 76.2325C144.368 78.4731 142.607 82.1979 139.827 83.0713C139.703 83.104 139.575 83.1079 139.459 83.0814Z" fill="black"/>
<path d="M115.409 128.422C115.051 128.34 114.814 127.992 114.871 127.622C114.931 127.237 115.295 126.981 115.681 127.042C116.836 127.229 118.1 126.796 118.9 125.942C119.165 125.658 119.612 125.644 119.895 125.909C120.179 126.173 120.193 126.62 119.929 126.904C118.802 128.116 117.088 128.701 115.452 128.432C115.441 128.43 115.425 128.426 115.409 128.422Z" fill="black"/>
<path d="M67.8917 93.95C67.7546 93.9186 67.6609 93.8917 67.624 93.8832C67.248 93.7806 67.0316 93.3927 67.133 93.022C67.2344 92.6513 67.6195 92.4231 67.9943 92.531C68.3913 92.6384 69.1577 92.7804 69.5447 92.7136C69.8284 92.6619 70.0575 92.5091 70.3761 92.3045C70.7207 92.0837 71.1453 91.8036 71.7627 91.5786C72.4829 91.3161 73.0182 91.2555 73.4961 91.2038C73.8089 91.17 74.0825 91.1382 74.3628 91.0525C75.0199 90.8477 75.6787 90.2716 75.6852 90.2676C75.9766 90.0124 76.4205 90.0362 76.6756 90.3276C76.9308 90.619 76.9069 91.0629 76.6156 91.318C76.5253 91.3973 75.7168 92.0945 74.7846 92.3862C74.3726 92.5139 74.0075 92.558 73.6541 92.5992C73.2209 92.6499 72.8111 92.6949 72.2485 92.8991C71.7822 93.0699 71.4624 93.2797 71.1491 93.4854C70.7645 93.7359 70.3669 93.9945 69.8102 94.1002C69.18 94.2113 68.324 94.0488 67.8917 93.95Z" fill="black"/>
<path d="M93.2833 100.65C92.5294 100.477 92.0968 100.04 92.0485 99.9846C91.7804 99.7013 91.7937 99.255 92.0757 98.9922C92.3577 98.7293 92.7935 98.7402 93.064 99.0129C93.0827 99.0283 93.2886 99.2196 93.6495 99.291C93.8352 99.328 94.4384 99.1164 94.8858 98.8581C95.2231 98.6689 95.6518 98.7836 95.8463 99.1221C96.0354 99.4594 95.9207 99.8881 95.5822 100.083C95.2697 100.261 94.1974 100.825 93.3888 100.674C93.3519 100.665 93.3202 100.658 93.2833 100.65Z" fill="black"/>
<path d="M82.7249 103.201C82.0501 103.046 81.5584 102.673 81.493 102.619C81.1877 102.377 81.1382 101.939 81.38 101.634C81.6206 101.334 82.0603 101.279 82.3668 101.515C82.4947 101.611 82.9026 101.865 83.2974 101.861C83.6242 101.864 83.8988 101.561 84.3154 101.073C84.6947 100.627 85.1214 100.12 85.7497 99.92C86.8747 99.5614 87.7079 100.09 87.7997 100.15C88.1216 100.368 88.2051 100.803 87.9925 101.126C87.7747 101.448 87.3383 101.537 87.0164 101.319C87.0111 101.318 86.6605 101.105 86.1808 101.261C85.9357 101.338 85.6551 101.668 85.3886 101.984C84.9028 102.556 84.3007 103.272 83.297 103.27C83.0976 103.269 82.9041 103.242 82.7249 103.201Z" fill="black"/>
<path d="M83.5282 98.6685C83.1538 98.5829 82.9168 98.2125 82.9983 97.8317C83.0164 97.7526 83.1909 97.038 83.9309 96.5193C84.7032 95.9802 85.4795 96.1522 85.5703 96.1674C85.9487 96.2595 86.1781 96.6392 86.086 97.0176C85.9939 97.396 85.5942 97.6153 85.2357 97.5333C85.241 97.5345 84.9896 97.4937 84.7334 97.6681C84.45 97.864 84.3674 98.1281 84.3674 98.1281C84.2859 98.5089 83.9102 98.7447 83.5294 98.6632C83.5334 98.6697 83.5334 98.6697 83.5282 98.6685Z" fill="black"/>
<path d="M91.3353 88.5704C91.1982 88.5391 91.0655 88.4643 90.9648 88.347C90.7096 88.0556 90.7375 87.6182 91.0248 87.3565C91.1074 87.2866 91.8398 86.6553 92.9618 86.407C93.4881 86.2888 94.1437 86.3333 94.8333 86.3745C95.5558 86.4176 96.3755 86.4719 96.8904 86.3067C97.7768 86.0212 98.0049 85.5574 98.1063 85.1867C98.2089 84.8107 98.6045 84.585 98.9728 84.6969C99.3488 84.7996 99.5652 85.1875 99.4626 85.5634C99.1812 86.5754 98.4607 87.2761 97.3227 87.6428C96.5563 87.8891 95.6368 87.8342 94.7461 87.7748C94.1826 87.7402 93.598 87.7008 93.2649 87.7745C92.4942 87.9422 91.9617 88.403 91.9552 88.407C91.78 88.5667 91.5515 88.6198 91.3353 88.5704Z" fill="black"/>
<path d="M102.223 104.447C101.965 104.388 101.746 104.182 101.693 103.904C101.683 103.852 101.585 103.358 101.624 102.823C101.641 102.627 101.705 102.42 101.794 102.13C102.062 101.27 102.285 100.394 101.812 99.9146C101.402 99.4991 100.792 99.3986 100.018 99.266C99.1048 99.1125 97.9662 98.9243 96.9425 98.0633C95.6639 96.9831 95.1873 95.5981 95.1677 95.5382C95.0409 95.1707 95.2428 94.7731 95.6102 94.6463C95.9764 94.5248 96.3753 94.7214 96.5033 95.0835C96.509 95.107 96.8913 96.1764 97.8549 96.9848C98.5809 97.5947 99.3931 97.7305 100.253 97.8771C101.156 98.0282 102.085 98.1852 102.815 98.9236C103.918 100.047 103.407 101.672 103.135 102.547C103.092 102.687 103.033 102.873 103.025 102.933C102.998 103.265 103.067 103.619 103.067 103.619C103.142 103.997 102.896 104.368 102.517 104.448C102.418 104.469 102.318 104.469 102.223 104.447Z" fill="black"/>
<path d="M87.6348 122.221C85.5681 121.748 81.9304 120.334 81.7677 120.269C81.4066 120.125 81.2278 119.718 81.3662 119.356C81.5098 118.995 81.9115 118.815 82.2791 118.954C82.32 118.969 86.4657 120.589 88.288 120.917C89.9182 121.212 91.4988 121.262 92.3329 121.181C93.4393 121.074 95.1647 120.103 95.8596 119.369C96.4377 118.758 97.6386 116.442 98.0268 114.744C98.1136 114.365 98.4893 114.129 98.8689 114.215C99.2485 114.302 99.4844 114.678 99.3976 115.058C98.972 116.919 97.6573 119.514 96.8814 120.335C95.9887 121.279 93.9548 122.434 92.4727 122.584C91.3322 122.694 89.593 122.585 88.0378 122.302C87.9101 122.278 87.7771 122.253 87.6348 122.221Z" fill="black"/>
<path d="M123.159 88.5188C122.594 88.3898 122.02 88.2085 121.443 87.9656C119.497 87.1377 118.577 85.1909 118.388 84.5152C118.284 84.142 118.501 83.7533 118.874 83.65C119.247 83.5467 119.636 83.7632 119.739 84.1363C119.846 84.5159 120.543 86.0565 121.993 86.6767C124.349 87.6814 126.732 87.4221 128.159 87.2713C128.739 87.2097 129.127 87.1652 129.42 87.2157C130.442 87.3827 131.161 88.0963 131.242 88.176C131.512 88.4539 131.51 88.8974 131.231 89.172C130.953 89.4413 130.51 89.4398 130.235 89.1606C130.235 89.1606 129.77 88.6937 129.191 88.6057C129.078 88.5909 128.651 88.6376 128.311 88.6707C127.164 88.7857 125.241 88.995 123.159 88.5188Z" fill="black"/>
<path d="M147.623 99.0786C147.154 98.9713 146.678 98.8182 146.211 98.6059C144.572 97.865 143.883 97.0694 143.379 96.4826C143.22 96.3021 143.085 96.1435 142.95 96.0294C142.158 95.3435 141.755 95.1903 141.618 95.1589C141.239 95.0669 141.011 94.6818 141.109 94.3046C141.2 93.9315 141.573 93.7062 141.947 93.7918C141.952 93.793 141.958 93.7942 141.963 93.7954C142.488 93.9265 143.115 94.314 143.875 94.9704C144.083 95.1512 144.259 95.3523 144.443 95.5664C144.908 96.1054 145.429 96.7128 146.787 97.323C149.643 98.6141 152.872 97.2554 153.007 97.1976C153.364 97.0461 153.775 97.2123 153.933 97.5646C154.085 97.921 153.918 98.3324 153.561 98.4892C153.221 98.639 150.512 99.7393 147.623 99.0786Z" fill="black"/>
<path d="M131.185 102.865C131 102.822 130.832 102.706 130.729 102.527C130.491 102.112 130.118 101.85 130.013 101.826C129.943 101.815 129.784 101.879 129.751 101.927C129.608 102.288 129.207 102.462 128.841 102.318C128.48 102.174 128.307 101.763 128.446 101.401C128.734 100.673 129.626 100.317 130.283 100.45C130.968 100.585 131.611 101.242 131.952 101.836C132.141 102.174 132.027 102.602 131.688 102.797C131.525 102.881 131.348 102.902 131.185 102.865Z" fill="black"/>
<path d="M125.634 107.387C124.938 107.228 124.459 106.924 124.2 106.477C124.001 106.137 123.958 105.739 124.072 105.366C124.183 104.997 124.565 104.807 124.931 104.908C125.302 105.009 125.511 105.401 125.421 105.774C125.432 105.799 125.559 105.922 125.954 106.013C126.734 106.191 127.166 106.001 127.667 105.777C128.105 105.583 128.598 105.369 129.239 105.477C130.237 105.649 131.184 106.337 131.066 107.337C131.023 107.721 130.67 108.001 130.287 107.952C129.899 107.902 129.623 107.556 129.672 107.173C129.641 107.116 129.347 106.922 129.005 106.866C128.791 106.828 128.595 106.911 128.237 107.067C127.651 107.327 126.868 107.67 125.634 107.387Z" fill="black"/>
<path d="M109.69 114.737C109.685 114.736 109.674 114.734 109.669 114.732C109.292 114.635 109.069 114.251 109.166 113.874C109.242 113.592 110.97 106.958 112.021 105.029C112.986 103.258 114.582 102.225 116.763 101.953C118.864 101.695 122.689 102.314 122.85 102.34C123.235 102.401 123.49 102.764 123.43 103.15C123.364 103.534 123.006 103.791 122.62 103.73C122.584 103.722 118.833 103.114 116.932 103.35C115.202 103.565 114 104.333 113.255 105.699C112.287 107.481 110.543 114.161 110.522 114.228C110.432 114.596 110.059 114.822 109.69 114.737Z" fill="black"/>
<path d="M139.096 125.811C138.944 125.776 138.807 125.695 138.704 125.561C138.463 125.256 138.515 124.813 138.82 124.572C139.828 123.776 141.561 122.286 141.91 121.683C142.629 120.455 143.088 119.007 143.118 117.904C143.15 116.575 142.954 115.736 142.257 114.173C141.551 112.603 140.049 110.678 140.032 110.658C139.791 110.353 139.848 109.911 140.152 109.67C140.457 109.429 140.9 109.48 141.14 109.79C141.205 109.872 142.767 111.871 143.542 113.602C144.336 115.37 144.565 116.382 144.525 117.938C144.495 119.284 143.969 120.951 143.129 122.395C142.544 123.399 140.167 125.302 139.693 125.676C139.511 125.817 139.297 125.857 139.096 125.811Z" fill="black"/>
<path d="M64.9158 88.4763C64.4202 88.9454 63.6192 89.7553 63.382 90.1616C63.1982 90.4802 63.5135 90.8241 63.8148 90.8652C64.4672 90.9479 65.7352 90.9826 66.3995 90.9404C67.7569 90.8513 68.8069 90.287 70.0325 89.7795C70.9394 89.4043 71.327 88.6553 73.2356 89.0917C74.4956 89.3798 76.5517 88.6128 76.9354 88.1236C77.0838 87.9356 77.1809 87.6083 76.8159 87.3362C75.7811 86.5726 74.6803 85.8548 73.296 85.2609C72.3617 84.8586 70.9446 84.2627 69.4174 84.5847C67.7022 84.9526 67.0777 86.4464 64.9158 88.4763Z" fill="black"/>
<path d="M88.1257 86.1332C88.0434 85.6928 88.052 82.477 89.8849 81.376C91.9368 80.142 93.9606 80.05 95.4978 80.4848C97.0707 80.9332 97.9802 81.4685 98.4821 81.6998C98.984 81.9311 99.3368 81.9896 99.5954 82.193C99.7781 82.3401 99.8806 82.7408 99.6229 82.9704C99.3716 83.1959 97.6967 83.8725 96.6227 84.1539C95.4728 84.4513 92.8756 84.2125 92.1001 84.4013C90.9292 84.6939 89.5474 85.9812 88.9641 86.3971C88.5646 86.6885 88.1745 86.4051 88.1257 86.1332Z" fill="black"/>
<path d="M89.8626 108.96C84.3532 109.981 77.7106 108.412 76.5755 108.135C75.9388 107.984 75.3632 109.046 75.6866 109.597C75.9624 110.065 78.24 113.06 83.0099 115.515C84.6631 116.365 86.806 116.844 88.0219 116.961C88.5214 117.009 91.4349 117.708 94.707 115.239C98.5696 112.322 99.3687 106.668 99.7834 104.855C99.8943 104.369 99.9236 103.416 99.3115 103.182C99.0417 103.076 98.3414 103.543 98.2362 103.857C98.081 104.293 97.0004 107.636 89.8626 108.96Z" fill="black"/>
<path d="M117.865 88.4013C117.733 88.4434 117.304 88.7223 117.097 88.897C116.892 89.0664 115.28 90.2679 114.717 90.644C114.062 91.0823 112.772 92.2851 113.493 93.4986C114.214 94.712 115.951 94.1273 116.438 93.3788C117.055 92.427 116.98 91.7607 117.153 90.7628C117.309 89.8609 118.02 89.6406 118.337 89.3692C118.621 89.1234 118.59 88.8223 118.479 88.6527C118.345 88.4389 118.097 88.3324 117.865 88.4013Z" fill="black"/>
<path d="M113.232 116.229C113.366 118.168 114.768 118.783 115.758 118.965C117.911 119.352 119.133 118.738 123.825 119.883C126.069 120.43 128.545 121.806 129.931 123.632C132.748 127.35 135.019 125.106 135.783 123.683C136.935 121.533 136.831 120.117 135.672 117.594C134.565 115.183 131.449 112.967 127.41 111.849C124.562 111.059 120.185 110.862 117.87 111.548C115.156 112.353 113.074 113.913 113.232 116.229Z" fill="black"/>
<path d="M88.8864 103.55C88.6439 103.494 88.4368 103.308 88.3674 103.054C88.2641 102.681 88.4806 102.292 88.8537 102.189C89.9391 101.882 90.8948 101.002 91.2855 99.9486C91.5939 99.1093 91.5152 98.2647 91.0525 97.5708C90.4463 96.6555 89.7011 95.7416 88.9127 94.7736C87.7384 93.3344 86.5262 91.8423 85.7257 90.2722C84.3543 87.5842 83.1695 83.7404 85.3252 80.6939C85.5471 80.3784 85.9864 80.3014 86.3071 80.5245C86.6225 80.7464 86.6996 81.1857 86.4764 81.5064C84.729 83.9805 85.7863 87.2903 86.9815 89.6329C87.7176 91.0717 88.8827 92.5032 90.0087 93.8869C90.7796 94.8343 91.5801 95.8218 92.2241 96.7902C92.9426 97.8698 93.0789 99.1659 92.6059 100.434C92.0559 101.917 90.7628 103.108 89.2326 103.54C89.1139 103.574 88.9971 103.575 88.8864 103.55Z" fill="black"/>
</g>
<defs>
<clipPath id="clip0">
<rect width="174.01" height="174.01" fill="white" transform="translate(38.7905) rotate(12.8807)"/>
</clipPath>
</defs>
</svg>
